{"glyphs":{"0":{"ha":410,"x_min":17,"x_max":393,"o":"m 387 364 q 392 330 391 343 q 393 313 393 323 q 392 290 393 303 q 370 172 391 227 q 332 96 355 132 q 284 39 308 59 q 224 7 258 18 q 180 0 201 0 q 162 1 171 0 q 29 132 68 22 q 21 160 24 148 q 18 188 18 172 q 17 230 17 203 q 21 298 17 271 q 37 365 24 324 q 129 541 75 494 q 142 553 134 546 q 155 567 149 560 q 180 585 168 580 q 211 591 193 591 q 281 566 244 591 q 340 504 317 541 q 387 364 372 448 m 239 127 q 279 216 266 165 q 288 285 288 252 q 286 312 288 298 q 264 398 280 357 q 231 457 248 439 q 201 473 215 472 q 182 477 193 473 q 163 486 171 481 q 158 491 160 490 q 155 491 156 492 q 152 489 153 491 q 132 454 143 479 q 112 397 121 429 q 87 248 87 315 q 91 194 87 237 q 132 112 94 151 q 178 87 155 87 q 202 94 190 87 q 239 127 222 103 z "},"1":{"ha":216,"x_min":22,"x_max":199,"o":"m 136 3 q 155 0 144 0 q 173 3 165 0 q 180 7 176 4 q 186 13 184 10 q 189 15 188 14 q 193 21 191 18 q 196 31 195 24 q 198 52 197 38 q 199 91 199 66 q 198 154 199 116 q 198 248 198 193 q 197 286 198 266 q 193 548 196 532 q 176 576 189 569 q 161 580 170 580 l 159 580 q 146 577 151 580 q 124 556 142 574 q 85 514 107 538 q 47 471 64 490 q 26 445 30 451 q 22 432 22 438 q 29 418 22 425 q 36 412 33 414 q 45 411 39 411 q 53 412 50 411 q 63 419 57 414 q 83 438 70 425 q 106 460 95 450 q 122 475 117 471 l 134 486 l 132 452 q 130 412 132 438 q 126 361 128 387 q 119 254 123 319 q 113 131 115 189 q 110 54 110 73 q 111 42 110 48 q 113 31 111 35 q 122 15 115 23 q 136 3 129 7 z "},"2":{"ha":368,"x_min":21,"x_max":348,"o":"m 80 1 q 131 0 95 0 q 207 1 167 0 q 275 3 247 2 q 305 5 296 4 q 319 9 314 7 q 348 50 345 24 l 348 56 q 330 96 348 78 q 314 106 322 103 q 296 109 308 109 q 285 109 294 109 q 246 106 276 109 q 204 103 224 104 q 175 101 184 102 l 156 100 l 169 121 q 272 409 256 270 q 273 451 273 428 q 273 479 273 458 q 268 516 272 499 q 263 532 267 523 q 256 548 260 541 q 186 599 231 599 q 137 586 164 599 q 71 470 73 551 q 72 453 71 458 q 75 443 73 447 q 93 431 82 432 q 98 430 95 430 q 113 437 106 430 q 116 442 115 439 q 118 449 117 444 q 118 462 118 454 q 123 494 118 481 q 158 533 135 520 q 178 540 170 540 q 193 533 186 540 q 205 471 205 515 q 205 445 205 469 q 190 368 205 420 q 53 112 155 245 q 36 87 43 98 q 26 74 28 77 q 21 52 21 63 q 25 30 21 43 q 50 5 30 17 q 61 3 53 4 q 80 1 69 1 z "},"3":{"ha":425,"x_min":26,"x_max":406,"o":"m 155 2 q 180 0 170 0 q 209 2 191 0 q 294 25 258 8 q 314 37 306 31 q 335 56 323 43 q 406 210 402 122 l 406 219 q 363 342 406 300 q 336 359 353 351 q 304 370 319 367 q 293 372 296 372 q 292 375 292 374 l 292 376 q 319 495 319 441 l 319 497 q 268 589 319 578 q 254 591 261 591 q 177 552 216 591 q 158 531 165 540 q 145 508 152 522 q 130 459 130 477 q 139 437 130 444 q 146 433 143 433 q 150 432 148 432 q 155 433 153 432 q 168 438 163 433 q 176 456 172 444 q 203 503 184 482 q 245 531 222 524 q 249 532 248 532 q 251 531 250 532 q 254 527 252 531 q 256 510 256 521 q 254 491 256 505 q 248 458 253 477 q 236 429 245 449 q 216 385 227 408 q 191 327 192 335 q 196 310 191 319 q 206 296 200 300 q 231 288 216 288 q 248 290 239 288 q 273 293 263 293 q 291 290 282 293 q 318 232 318 281 q 277 133 318 175 q 259 118 265 122 q 241 110 253 113 q 222 106 232 107 q 207 105 216 105 l 191 105 q 159 109 172 105 q 123 130 146 113 q 105 141 114 136 q 91 148 96 146 q 77 149 83 149 q 37 128 52 149 q 26 97 26 114 q 33 68 26 83 q 42 56 37 62 q 56 45 47 51 q 155 2 108 9 z "},"4":{"ha":371,"x_min":17,"x_max":354,"o":"m 303 2 q 316 0 309 0 q 323 0 317 0 q 336 5 329 1 q 341 9 338 6 q 348 17 345 13 q 352 24 351 21 q 354 34 353 27 q 354 57 354 41 q 353 96 353 71 q 351 146 352 121 q 345 282 347 231 q 344 379 344 332 l 344 446 l 337 452 q 323 459 330 459 q 309 453 317 459 q 300 439 304 449 q 295 407 297 429 q 290 348 292 386 q 289 316 290 329 q 288 297 288 304 q 286 286 287 290 q 283 282 285 283 q 281 281 282 281 q 271 280 278 281 q 257 277 264 279 q 200 267 233 271 q 138 261 168 262 l 102 260 l 129 324 q 156 386 141 352 q 181 444 170 420 q 202 492 191 468 q 218 529 212 516 q 228 554 225 545 q 229 564 229 559 q 228 570 229 566 q 221 578 227 573 q 207 584 214 584 q 180 562 193 584 q 131 469 170 544 q 52 315 92 395 q 25 261 33 279 q 17 235 17 243 q 22 216 17 226 q 113 184 33 188 q 138 183 125 183 q 206 185 165 183 q 275 193 248 188 l 283 195 l 283 155 q 283 116 283 138 q 281 75 282 93 q 281 44 281 58 q 282 26 281 31 q 290 13 284 19 q 303 2 296 6 z "},"5":{"ha":384,"x_min":17,"x_max":361,"o":"m 132 3 q 161 0 146 0 q 234 14 195 0 q 342 122 307 42 q 361 221 361 170 q 357 276 361 235 q 315 368 353 317 q 259 414 293 397 q 220 428 237 425 q 180 430 205 430 l 168 430 l 124 429 l 124 549 l 138 551 q 230 564 176 558 q 258 569 248 567 q 273 572 269 570 q 280 578 278 574 q 283 590 283 583 q 281 603 283 597 q 277 607 280 605 q 271 611 275 610 q 264 613 269 612 q 250 614 259 614 q 222 613 240 614 q 138 608 179 612 q 88 602 97 604 q 65 566 71 594 q 60 513 62 553 q 56 425 57 473 q 55 398 55 407 q 56 386 55 390 q 59 377 57 381 q 65 368 61 373 q 73 361 68 363 l 81 354 l 136 354 q 182 353 166 354 q 207 350 198 353 q 226 340 216 347 q 264 279 254 321 q 271 235 271 258 q 265 191 271 213 q 254 158 260 172 q 235 132 247 144 q 212 115 223 121 q 184 106 201 109 q 171 104 178 104 q 117 130 144 104 q 105 140 111 135 q 94 146 98 144 q 71 152 82 152 q 37 141 56 152 q 17 99 19 130 q 22 75 17 85 q 41 51 28 64 q 132 3 81 15 z "},"6":{"ha":341,"x_min":18,"x_max":323,"o":"m 319 239 q 323 201 323 222 q 323 183 323 197 q 317 146 323 168 q 236 23 293 59 q 203 7 218 12 q 169 2 189 2 l 159 2 q 146 2 154 2 q 133 4 139 3 q 41 90 77 18 q 24 135 29 114 q 18 186 19 156 q 18 207 18 197 q 20 247 18 226 q 31 300 22 267 q 47 355 38 330 q 73 412 57 380 q 150 524 108 479 q 229 580 192 570 q 239 581 234 581 q 254 576 246 581 q 262 560 262 572 q 243 536 262 543 q 166 456 206 519 q 150 428 159 444 q 135 399 142 412 q 128 383 129 386 q 148 379 130 380 q 253 336 200 374 q 319 239 303 299 m 224 176 q 224 189 224 183 q 201 243 224 222 q 190 251 197 247 q 175 260 182 256 q 161 266 167 264 q 149 268 156 267 q 127 268 142 268 q 104 267 111 268 q 96 264 97 267 q 93 247 94 261 q 92 217 92 233 q 94 189 92 201 q 123 112 98 144 q 159 88 140 88 q 181 96 170 88 q 224 176 213 115 z "},"7":{"ha":317,"x_min":20,"x_max":300,"o":"m 100 1 q 107 0 104 0 q 121 2 113 0 q 136 8 129 3 q 151 28 146 14 q 164 77 157 41 q 200 269 188 192 q 206 306 203 291 q 210 323 209 321 q 221 325 211 323 q 245 329 231 327 q 270 333 258 331 q 284 338 281 336 q 300 363 300 347 q 299 374 300 364 q 283 393 299 383 q 274 395 278 395 q 269 396 272 396 q 261 395 267 396 q 243 391 256 394 q 228 388 235 389 q 222 387 222 387 l 222 387 q 224 408 222 391 q 231 452 227 425 q 244 547 242 517 q 245 568 245 561 q 244 579 245 575 q 240 587 243 583 q 229 601 236 595 q 214 610 222 608 q 200 611 210 611 q 146 606 182 611 q 107 602 132 604 q 62 597 83 599 q 37 595 41 595 q 33 593 36 595 q 28 589 31 591 q 20 574 20 582 q 22 563 20 570 q 40 551 25 555 q 70 549 48 549 q 136 551 94 549 q 168 553 155 552 q 178 553 174 553 q 182 553 181 553 q 182 550 182 553 q 178 525 182 545 q 159 441 174 504 l 142 372 l 120 368 q 88 361 106 365 q 56 353 71 357 q 36 347 41 349 q 21 330 24 342 q 20 325 20 328 q 26 310 20 317 q 35 304 30 306 q 40 304 37 304 q 51 304 44 304 q 78 308 58 305 q 81 309 80 309 q 105 312 96 311 q 119 314 114 313 q 123 315 121 315 q 127 314 125 315 q 128 313 128 314 l 129 312 l 128 311 l 128 310 q 125 297 127 307 q 120 273 123 287 q 108 223 117 259 q 89 147 99 188 q 72 78 79 107 q 64 47 64 49 q 75 18 65 31 q 100 1 85 5 z "},"8":{"ha":388,"x_min":21,"x_max":365,"o":"m 363 175 q 365 151 365 163 q 345 80 365 111 q 230 4 307 16 q 195 2 216 2 q 163 4 175 2 q 60 65 98 18 q 21 182 22 113 l 21 190 q 92 336 21 264 q 111 357 104 349 q 119 366 119 366 q 115 374 119 367 q 104 390 111 380 q 82 434 88 414 q 76 479 76 454 q 77 504 76 495 q 81 523 79 513 q 176 618 105 589 q 193 622 185 621 q 204 623 197 623 l 212 623 q 232 621 224 622 q 245 615 239 619 q 298 513 298 587 q 296 489 298 498 q 291 467 295 479 q 273 422 285 448 q 251 380 261 397 l 241 366 l 275 332 q 340 253 321 288 q 363 175 359 219 m 158 513 q 154 500 155 507 l 154 482 q 156 463 155 469 q 163 449 157 457 q 172 436 165 444 q 184 420 178 429 q 197 407 191 412 q 203 401 202 401 q 207 408 204 401 q 215 422 210 414 q 224 444 219 432 q 231 465 229 456 q 237 507 237 488 q 234 537 237 519 q 212 556 230 556 q 183 543 200 556 q 158 513 166 529 m 250 124 q 262 142 260 133 q 264 159 264 148 q 264 171 264 164 q 262 193 263 185 q 256 208 260 200 q 239 236 251 219 q 212 269 227 253 l 201 281 l 178 258 q 138 191 142 220 q 138 182 138 187 q 144 150 138 168 q 161 123 150 132 q 205 110 180 110 q 228 113 216 110 q 250 124 239 115 z "},"9":{"ha":307,"x_min":20,"x_max":289,"o":"m 288 344 q 289 337 289 340 q 286 322 289 328 q 282 308 284 319 q 277 283 279 296 q 254 173 270 237 q 222 58 238 109 q 207 16 212 28 q 197 2 201 4 q 184 0 191 0 q 172 3 177 1 q 164 19 164 8 q 170 57 164 30 q 187 133 178 90 q 201 210 195 176 q 205 244 205 237 l 205 246 q 202 245 205 246 q 195 243 199 245 q 155 237 175 237 q 96 253 130 237 q 37 315 62 268 q 24 350 28 334 q 20 392 20 367 l 20 404 q 50 526 20 475 q 138 587 81 576 q 154 587 146 587 q 252 527 217 587 q 275 468 267 498 q 285 394 282 437 q 287 364 286 378 q 288 344 288 350 m 210 394 l 210 397 q 208 419 210 404 q 200 448 205 434 q 158 504 181 504 q 143 498 151 504 q 120 461 128 489 q 116 442 117 452 q 115 414 115 432 q 115 391 115 399 q 117 379 115 384 q 122 367 119 374 q 153 342 134 342 q 159 343 156 342 q 169 350 163 345 q 185 366 174 355 q 202 384 195 376 q 210 394 210 391 z "}," ":{"ha":345,"x_min":0,"x_max":0,"o":""},"!":{"ha":107,"x_min":18,"x_max":90,"o":"m 56 57 q 62 58 60 58 q 68 57 66 58 q 76 50 71 56 q 83 42 81 45 q 84 30 84 38 q 82 18 84 22 q 75 9 81 14 q 66 2 70 3 q 57 0 62 0 q 49 1 54 0 q 41 4 44 3 q 24 29 24 15 q 27 40 24 34 q 56 57 35 56 m 80 556 q 87 544 85 551 q 90 523 90 537 q 89 481 90 509 q 86 405 87 458 q 84 294 85 352 q 83 224 83 252 q 81 177 82 195 q 80 148 81 159 q 78 132 79 138 q 76 124 77 127 q 73 120 75 122 q 57 112 64 112 q 50 114 53 112 q 34 146 35 120 q 33 167 33 153 q 31 195 32 181 q 22 340 26 263 q 18 473 19 416 l 18 499 q 19 541 18 533 q 45 566 26 561 q 54 568 50 568 q 80 556 68 568 z "},"\"":{"ha":160,"x_min":17,"x_max":143,"o":"m 53 581 q 59 572 57 578 q 64 553 62 566 q 70 515 66 540 q 73 471 73 486 q 73 461 73 469 q 66 447 73 453 q 49 439 57 439 q 41 440 45 439 q 23 459 28 446 q 21 479 22 463 q 18 517 20 496 q 17 546 18 535 q 17 562 17 557 q 18 571 17 568 q 20 576 18 574 q 35 587 26 586 l 38 587 q 53 581 46 587 m 140 517 q 142 489 142 499 q 143 473 143 478 q 142 464 143 467 q 140 458 142 461 q 135 452 138 455 q 128 448 132 450 q 118 445 122 445 q 110 447 115 445 q 100 454 105 449 q 93 466 95 460 q 91 484 92 469 q 90 519 90 498 q 91 559 90 546 q 96 577 92 572 q 106 585 100 583 q 115 587 112 587 q 121 585 118 587 q 131 577 127 583 q 136 558 134 572 q 140 517 138 545 z "},"#":{"ha":460,"x_min":31,"x_max":438,"o":"m 399 376 q 434 357 425 376 q 438 342 438 350 q 429 319 438 330 q 415 310 424 313 q 387 306 406 307 l 364 304 l 345 249 q 332 209 337 225 q 326 191 326 193 q 337 190 326 191 q 363 189 347 189 q 391 186 378 188 q 407 184 403 185 q 421 171 417 180 q 424 162 424 167 q 421 152 424 157 q 414 145 419 148 q 395 141 408 143 q 357 138 382 140 l 308 136 l 292 84 q 276 40 282 56 q 266 17 271 24 q 256 7 262 10 q 236 0 248 1 l 233 0 q 216 5 223 0 q 197 34 199 16 l 197 37 q 199 49 197 42 q 208 74 201 56 q 221 108 217 96 q 228 125 226 120 q 229 130 229 128 l 229 131 l 227 131 q 216 130 224 131 q 192 128 207 130 q 154 121 155 124 q 147 106 153 119 q 134 77 142 94 q 116 32 122 46 q 104 15 109 18 q 91 12 99 12 q 77 18 83 12 q 70 33 70 24 q 74 52 70 35 q 84 85 79 68 q 92 112 89 103 l 92 113 q 92 114 92 113 q 86 115 91 115 q 73 114 82 115 q 58 113 63 113 q 51 115 54 113 q 45 119 48 116 q 31 146 31 133 q 43 174 31 160 q 60 182 50 180 q 87 184 69 184 q 103 185 96 184 q 113 186 111 185 q 117 191 115 186 q 123 207 119 195 q 134 239 127 218 q 147 278 142 262 q 153 296 152 294 l 153 296 q 151 297 153 297 q 144 298 150 298 q 130 297 140 298 q 109 295 119 296 q 91 293 98 294 q 78 292 84 292 q 50 313 53 292 l 50 317 q 50 323 50 320 q 54 329 51 326 q 63 335 57 332 q 85 340 69 337 q 111 346 96 343 q 137 350 125 348 q 157 353 149 351 q 168 355 164 354 q 173 356 172 355 q 174 358 174 357 q 179 375 174 360 q 192 410 184 391 q 206 446 199 430 q 214 466 212 462 q 229 479 219 474 q 246 485 238 485 q 279 463 266 485 q 283 448 283 456 q 282 437 283 445 q 271 408 281 430 q 261 386 266 396 q 256 372 257 376 l 252 365 l 281 366 q 304 368 293 367 q 319 370 315 369 l 330 371 l 353 420 q 373 459 366 446 q 385 476 380 473 q 397 480 390 480 q 412 474 405 480 q 419 460 419 467 q 414 442 419 457 q 404 410 410 427 q 392 380 397 393 l 392 379 q 393 377 392 378 q 399 376 394 376 m 300 302 l 300 302 q 295 304 300 304 q 276 304 290 304 q 255 304 266 304 q 239 303 244 304 l 227 301 l 220 286 q 201 241 212 267 q 186 201 191 215 l 181 190 l 217 191 q 243 192 233 191 q 254 193 254 193 q 261 209 255 194 q 277 246 268 224 q 293 284 286 269 q 300 302 300 300 z "},"$":{"ha":313,"x_min":19,"x_max":291,"o":"m 287 272 q 291 241 291 257 q 283 198 291 224 q 252 149 276 172 q 228 133 243 142 q 202 121 214 125 q 200 119 201 121 q 199 113 199 117 q 199 99 199 109 q 199 74 199 90 l 199 28 l 193 18 q 161 -2 180 -2 q 140 3 151 -2 q 131 9 135 5 q 124 20 127 14 l 117 33 l 119 73 l 121 112 l 102 115 q 66 129 85 119 q 35 148 47 138 q 19 183 19 163 q 20 198 19 186 q 43 221 21 210 q 62 227 52 227 q 72 225 64 227 q 98 212 80 224 q 113 204 106 208 q 121 201 119 201 q 123 202 123 201 q 124 211 124 204 q 125 229 125 217 q 125 258 125 241 q 126 290 125 275 l 127 322 l 114 331 q 86 355 99 341 q 66 382 73 369 q 60 398 62 391 q 59 415 59 404 q 127 502 60 475 l 135 505 l 138 538 q 144 577 140 566 q 156 592 148 589 q 162 594 159 593 q 165 595 164 595 q 171 593 167 595 q 179 589 176 591 q 184 585 183 587 q 185 571 184 583 q 187 544 186 559 l 188 507 l 203 503 q 227 491 218 498 q 239 476 237 484 q 239 471 239 473 q 236 458 239 465 q 224 450 233 452 q 218 449 221 449 q 214 449 216 449 q 203 452 211 449 q 195 456 199 454 q 190 457 191 457 q 189 444 189 457 l 189 431 q 189 410 189 423 q 190 384 189 397 q 191 366 190 370 q 205 355 192 361 q 287 272 271 322 m 132 427 l 132 444 l 125 438 q 118 422 118 431 q 123 407 118 414 q 127 400 126 401 q 130 404 129 400 q 131 413 130 407 q 132 427 131 420 m 210 224 q 216 244 216 235 q 201 273 216 260 l 194 280 l 194 263 q 194 245 194 256 q 195 227 195 235 q 197 213 196 217 q 198 210 197 210 q 201 212 199 210 q 206 217 203 214 q 210 224 208 220 z "},"%":{"ha":429,"x_min":20,"x_max":410,"o":"m 406 585 q 410 574 410 581 q 409 566 410 572 q 396 543 408 561 q 350 465 383 524 q 277 334 316 406 q 93 14 123 49 q 62 0 79 0 q 41 5 52 0 q 22 28 27 12 q 20 42 20 35 q 23 60 20 52 q 33 77 25 64 q 52 106 41 90 q 114 198 79 145 q 221 368 148 251 q 307 500 269 444 q 360 575 345 556 q 370 586 365 581 q 378 591 375 590 q 388 593 382 593 q 396 592 391 593 q 406 585 401 591 m 313 226 q 332 206 322 220 q 346 178 341 193 q 351 145 351 163 q 346 117 351 127 q 331 97 342 108 q 311 82 321 87 q 288 77 300 77 q 266 81 277 77 q 233 144 233 98 q 234 159 233 151 q 236 170 235 166 q 246 190 239 180 q 258 204 253 201 q 263 209 260 205 q 267 214 265 212 q 287 230 273 227 q 295 231 291 231 q 313 226 304 231 m 290 137 q 292 142 292 139 q 290 151 292 144 q 288 158 289 155 q 286 161 286 161 q 284 155 284 159 l 284 151 q 284 144 284 149 q 285 138 284 140 q 287 135 286 135 q 290 137 288 135 m 106 361 q 76 414 76 377 q 81 448 76 429 q 94 473 85 460 q 113 492 102 485 q 143 503 129 503 q 190 465 170 503 q 195 451 194 457 q 197 433 197 444 q 196 416 197 422 q 191 401 195 410 q 153 363 176 374 q 127 357 140 357 q 106 361 117 357 m 134 439 q 130 434 132 439 q 129 422 129 429 q 130 416 129 417 q 132 419 131 416 q 135 425 134 421 q 136 431 136 428 q 135 437 136 435 q 134 439 134 439 z "},"&":{"ha":431,"x_min":24,"x_max":412,"o":"m 412 89 l 412 83 q 398 47 412 62 q 360 32 384 32 q 335 38 347 32 q 299 66 323 45 q 278 83 287 76 q 270 90 270 90 q 266 84 269 90 q 256 72 262 79 q 192 15 230 34 q 174 7 182 10 q 160 2 165 3 q 136 0 150 0 q 121 0 132 0 q 100 3 111 1 q 24 117 32 31 l 24 126 q 27 155 24 140 q 42 194 31 169 q 65 239 50 210 q 93 288 81 268 q 94 292 94 290 q 91 301 94 295 q 83 319 89 307 q 55 431 55 379 q 107 557 55 501 q 141 583 125 575 q 178 591 157 590 q 191 591 185 591 q 201 591 196 591 q 214 587 206 590 q 273 485 265 567 q 273 474 273 479 q 262 410 273 446 q 240 360 255 391 q 215 311 226 329 q 209 300 211 305 q 206 294 206 296 q 216 282 206 293 q 239 258 226 271 q 262 234 252 244 q 273 224 272 224 q 296 260 275 224 q 343 343 317 296 q 374 368 357 368 q 381 367 377 368 q 395 350 395 363 q 386 320 395 338 q 321 178 321 186 q 334 169 322 177 q 361 148 345 160 q 401 114 391 125 q 412 89 411 102 m 165 511 q 135 439 135 481 q 148 379 135 412 q 156 362 151 372 q 166 346 161 353 q 172 339 170 339 q 176 346 172 339 q 183 363 179 353 q 211 467 211 426 q 205 500 211 486 q 197 518 201 513 q 185 522 193 522 q 176 520 180 522 q 165 511 172 518 m 208 119 q 216 130 214 126 q 219 136 218 134 q 218 140 219 138 q 209 150 216 142 q 193 168 202 158 q 174 189 183 179 q 162 203 165 198 q 155 210 158 208 q 153 212 153 212 q 143 198 150 210 q 128 173 136 186 q 116 151 120 159 q 106 125 108 134 q 106 117 106 121 q 107 104 106 111 q 111 92 109 97 q 119 82 114 87 q 134 74 126 75 l 138 74 q 157 78 145 74 q 208 119 184 87 z "},"'":{"ha":83,"x_min":17,"x_max":66,"o":"m 35 477 q 42 477 38 477 q 50 477 46 477 q 54 479 52 478 q 57 479 56 479 q 58 481 57 479 q 62 487 60 484 q 65 494 64 490 q 66 507 66 498 q 65 536 66 517 q 64 560 64 551 q 63 573 64 568 q 61 579 62 577 q 57 584 60 581 q 43 590 50 590 q 32 588 39 590 q 20 572 25 586 q 17 529 17 563 q 17 505 17 513 q 19 493 18 497 q 22 487 20 490 q 28 481 24 484 q 35 477 32 478 z "},"(":{"ha":208,"x_min":33,"x_max":189,"o":"m 132 4 q 147 0 140 0 q 162 3 153 0 q 176 11 171 6 q 184 24 181 16 q 189 41 189 33 q 187 53 189 45 q 171 79 184 62 q 139 138 156 100 q 113 208 121 176 q 99 324 99 264 q 111 437 99 380 q 130 499 117 467 q 154 547 142 531 q 161 564 161 556 q 159 573 161 566 q 146 584 157 579 q 139 585 142 585 q 86 528 115 585 q 33 292 33 417 q 38 214 33 254 q 76 85 46 157 q 132 4 103 20 z "},")":{"ha":182,"x_min":22,"x_max":164,"o":"m 41 5 q 62 0 48 0 q 89 9 78 0 q 114 45 99 18 q 162 228 154 111 q 164 279 164 252 q 163 321 164 292 q 157 378 162 349 q 121 513 144 450 q 81 591 98 576 q 65 596 73 596 q 55 594 62 596 q 45 579 47 591 l 45 576 q 45 570 45 574 q 50 557 46 566 q 72 497 60 536 q 90 414 83 457 q 96 337 96 381 q 97 316 97 326 q 94 259 97 285 q 58 113 82 161 q 51 99 56 108 q 39 81 45 90 q 29 63 33 72 q 23 51 24 55 q 22 40 22 45 q 41 5 22 20 z "},"*":{"ha":252,"x_min":18,"x_max":233,"o":"m 189 380 q 201 378 195 378 q 208 378 203 378 q 220 382 213 378 q 233 406 233 391 l 233 410 q 227 427 233 419 q 202 448 220 435 q 184 463 193 456 q 171 474 176 470 l 161 483 l 192 517 q 215 544 205 532 q 226 559 224 555 q 229 574 229 568 q 220 595 229 587 q 201 604 212 604 q 184 600 193 604 q 168 583 179 596 q 143 552 156 570 q 141 550 142 550 q 140 553 140 550 q 138 565 139 556 q 136 589 138 573 q 134 603 135 598 q 128 611 132 608 q 115 618 121 618 q 107 617 113 618 q 94 606 101 616 q 91 594 92 602 q 89 573 90 587 q 88 556 89 563 q 87 549 87 549 q 82 552 86 549 q 73 562 78 556 q 39 582 53 582 q 23 574 30 582 q 18 562 18 568 q 18 557 18 561 q 27 541 18 553 q 58 507 36 529 l 85 477 l 71 459 q 39 412 45 426 q 37 403 37 407 q 45 389 37 395 q 59 382 52 382 q 71 386 64 382 q 82 396 74 388 q 99 415 90 404 l 121 440 l 138 425 q 170 396 155 408 q 189 380 184 383 z "},"+":{"ha":379,"x_min":20,"x_max":360,"o":"m 184 141 q 198 138 191 138 q 211 141 203 138 q 227 156 220 144 q 229 162 229 159 q 230 170 230 165 q 231 178 231 174 q 230 190 231 182 q 228 217 229 198 q 225 255 226 239 q 224 271 224 270 q 240 272 225 271 q 278 274 256 273 q 322 276 307 275 q 344 282 337 278 q 355 293 351 286 q 360 311 360 302 q 357 324 360 315 q 342 340 355 333 q 337 342 340 341 q 327 342 334 342 q 309 341 321 342 q 277 338 297 340 q 237 334 253 335 q 221 332 224 332 l 220 332 q 217 347 218 334 q 214 380 216 361 q 211 418 212 399 q 210 450 210 437 q 202 460 209 454 q 191 465 196 465 q 177 461 183 465 q 168 452 171 458 q 162 398 162 438 q 163 368 162 385 l 164 328 l 148 326 q 127 323 141 325 q 100 320 114 321 q 72 316 86 318 q 50 314 58 315 q 35 311 39 313 q 26 306 31 310 q 20 291 20 298 q 23 279 20 287 q 42 267 26 271 l 50 267 q 69 267 56 267 q 106 269 83 267 q 145 271 130 270 q 157 271 153 271 q 162 271 162 271 q 163 253 163 269 q 165 214 164 237 q 167 170 166 184 q 172 151 168 156 q 184 141 176 145 z "},",":{"ha":107,"x_min":18,"x_max":90,"o":"m 41 -48 q 52 -51 47 -51 q 75 -34 65 -51 q 90 38 90 -5 q 90 57 90 50 q 87 68 90 64 q 82 81 85 73 q 68 100 75 95 q 53 106 62 106 l 51 106 q 20 85 28 104 q 18 74 18 79 q 20 64 18 71 q 31 45 22 58 q 38 35 36 39 q 40 27 40 31 q 39 18 40 24 q 37 3 39 12 q 34 -12 35 -5 q 31 -29 31 -22 q 41 -48 31 -43 z "},"-":{"ha":247,"x_min":19,"x_max":230,"o":"m 27 273 q 36 270 30 271 q 56 269 42 269 q 121 272 79 269 q 193 276 163 274 q 208 278 203 277 q 216 281 213 279 q 222 286 218 283 q 228 295 227 292 q 230 305 230 298 q 223 323 230 315 q 208 333 217 331 q 201 334 206 334 q 186 333 197 334 q 140 327 175 332 q 41 314 106 323 q 27 307 33 313 q 19 296 20 302 l 19 292 q 27 273 19 281 z "},".":{"ha":108,"x_min":19,"x_max":90,"o":"m 35 4 q 52 0 43 0 q 60 1 54 0 q 75 7 66 1 q 90 35 90 20 l 90 36 q 77 63 90 51 q 56 71 67 71 q 46 70 54 71 q 28 58 39 69 q 21 50 23 54 q 19 37 20 45 l 19 33 q 35 4 19 14 z "},"/":{"ha":330,"x_min":20,"x_max":313,"o":"m 47 3 q 60 0 55 0 q 73 2 64 0 q 91 15 81 5 q 104 36 100 24 q 130 98 109 49 q 173 205 150 148 q 212 299 197 262 q 306 536 243 374 q 313 562 313 554 q 307 575 313 570 q 291 582 300 582 q 276 576 283 583 q 198 421 267 567 q 171 365 188 399 q 139 299 154 330 q 92 203 117 256 q 46 109 66 151 q 24 59 26 67 q 20 42 20 50 q 24 24 20 33 q 34 11 28 16 q 47 3 39 6 z "},":":{"ha":109,"x_min":17,"x_max":90,"o":"m 69 254 q 83 226 83 241 q 82 216 83 225 q 67 199 82 208 q 48 195 58 195 q 35 197 41 195 q 17 227 18 205 q 36 256 19 248 q 51 260 43 260 q 69 254 60 260 m 62 431 q 90 404 90 431 l 89 397 q 86 384 87 389 q 79 374 84 379 q 71 368 75 370 q 62 366 68 366 q 53 368 57 367 q 45 370 48 368 q 32 398 32 378 q 41 421 33 412 q 62 431 50 431 z "},";":{"ha":103,"x_min":22,"x_max":84,"o":"m 84 213 l 84 201 q 71 140 84 162 q 43 119 61 119 q 34 121 37 119 q 28 126 31 122 q 22 140 22 132 q 27 157 22 148 q 33 190 33 170 q 31 220 33 203 q 28 241 28 235 l 28 244 q 29 252 28 249 q 46 268 34 264 q 55 269 51 269 q 69 264 62 269 q 80 248 77 259 q 84 213 83 237 m 47 376 q 32 397 37 382 q 30 409 30 403 q 33 422 30 416 q 58 436 39 436 l 63 436 q 80 421 74 435 q 83 405 83 413 q 82 393 83 399 q 68 376 78 382 q 58 374 63 374 q 47 376 53 374 z "},"<":{"ha":387,"x_min":19,"x_max":367,"o":"m 264 195 q 296 185 285 189 q 313 180 307 181 q 326 180 319 180 q 340 182 335 180 q 350 187 345 183 q 358 195 354 190 q 363 204 361 199 q 367 220 367 212 q 363 239 367 228 q 344 258 359 250 q 285 277 334 262 q 172 308 236 291 q 138 317 152 313 q 123 321 124 321 q 180 357 123 323 q 210 375 193 365 q 240 394 227 385 q 268 412 254 403 q 292 427 283 421 q 336 459 327 447 q 342 473 342 466 q 338 484 342 479 q 327 494 335 491 q 321 494 324 494 q 314 493 319 494 q 299 486 309 491 q 274 474 290 481 q 237 454 255 464 q 210 440 219 445 q 184 427 201 435 q 150 409 167 418 q 83 374 116 392 q 38 348 51 356 q 20 321 22 336 q 19 315 19 318 q 28 290 19 302 q 61 267 36 279 q 146 236 86 256 q 211 214 177 226 q 264 195 244 203 z "},"=":{"ha":422,"x_min":19,"x_max":404,"o":"m 379 289 l 386 281 q 393 264 393 273 q 392 258 393 263 q 381 246 391 252 q 368 244 379 245 q 340 241 356 242 q 271 231 320 238 q 170 214 222 223 q 89 199 118 205 l 87 199 q 65 194 72 195 l 59 194 q 54 194 56 194 q 45 197 51 195 l 45 197 q 25 228 25 208 q 45 258 25 248 q 195 279 58 264 q 273 286 245 283 q 319 290 302 289 q 335 290 328 290 q 351 290 343 290 l 379 289 m 385 442 q 402 422 398 435 q 404 413 404 418 q 399 397 404 405 q 364 378 391 378 l 361 378 q 339 377 354 378 q 309 374 324 376 q 220 370 281 372 q 104 368 159 368 l 72 368 q 38 368 45 368 q 22 380 28 370 q 19 392 19 386 q 20 398 19 395 q 26 407 22 404 q 44 412 31 410 q 83 417 57 414 q 124 421 104 419 q 153 423 144 422 q 230 431 182 425 q 306 441 277 436 q 356 445 334 445 q 385 442 377 446 z "},">":{"ha":364,"x_min":17,"x_max":347,"o":"m 24 146 q 31 140 27 142 l 43 140 q 55 143 48 140 q 76 152 62 145 q 113 170 90 158 q 169 198 138 182 q 222 227 200 214 q 266 250 245 239 q 298 267 288 262 q 337 293 327 281 q 347 322 347 304 q 343 343 347 334 q 330 361 340 351 q 311 378 323 369 q 273 404 298 388 q 203 446 248 419 q 131 489 157 474 q 93 509 104 504 q 75 514 81 514 q 40 497 53 514 q 32 472 32 486 q 33 460 32 467 q 41 445 35 452 q 64 430 47 439 q 113 404 80 420 q 212 352 173 372 q 258 327 252 331 q 260 324 260 326 l 260 323 q 258 320 260 322 q 248 315 255 319 q 225 300 241 311 q 189 277 208 290 q 102 223 148 251 q 38 186 56 195 q 22 175 26 180 q 17 161 17 170 q 24 146 17 151 z "},"?":{"ha":298,"x_min":18,"x_max":281,"o":"m 277 505 q 281 471 281 491 q 281 455 281 468 q 275 422 281 441 q 224 317 263 380 q 171 221 187 258 q 153 155 155 185 q 151 140 152 145 q 149 133 151 136 q 144 127 147 130 q 130 121 137 121 q 121 123 125 121 q 105 159 105 130 q 114 215 105 181 q 130 264 119 239 q 164 334 140 288 q 186 379 176 357 q 200 411 197 400 q 208 434 206 425 q 210 457 210 442 l 210 460 q 189 511 210 498 q 166 520 178 520 q 138 506 152 520 q 117 479 124 494 q 108 441 111 464 q 100 407 105 418 q 85 389 96 395 q 62 382 75 382 q 38 389 48 382 q 18 429 18 401 l 18 433 q 45 524 19 480 q 56 540 48 530 q 72 558 64 549 q 92 576 84 570 q 112 587 100 582 q 161 601 138 601 q 181 598 172 601 q 277 505 254 582 m 146 63 q 160 35 161 50 q 145 7 160 20 q 125 0 136 1 l 123 0 q 106 4 113 0 q 90 33 90 14 l 90 37 q 91 50 90 45 q 98 58 93 54 q 122 71 109 69 l 125 71 q 146 63 137 71 z "},"@":{"ha":623,"x_min":18,"x_max":606,"o":"m 586 461 q 602 416 598 434 q 606 369 606 397 q 604 336 606 348 q 600 312 603 324 q 534 184 580 226 q 475 157 506 157 l 466 157 q 457 157 462 157 q 446 161 452 158 q 393 239 410 178 l 388 258 l 380 245 q 341 199 363 220 q 301 168 319 177 q 276 159 290 162 q 256 157 265 157 l 252 157 q 205 180 227 159 q 169 259 173 212 q 168 275 168 267 q 188 354 168 315 q 225 399 201 378 q 273 429 249 420 q 305 434 288 434 q 326 432 311 434 q 359 420 340 431 q 369 416 366 416 l 370 416 q 371 418 371 416 q 375 427 371 421 q 386 437 380 432 q 396 444 391 442 q 412 448 404 448 q 428 444 418 448 q 446 429 438 441 q 452 417 451 422 q 453 401 453 412 q 451 384 453 391 q 445 368 450 377 l 437 351 l 439 319 q 445 269 440 287 q 455 240 449 253 q 466 222 460 227 q 469 220 468 220 l 471 220 q 474 220 472 220 q 479 224 475 221 q 510 267 496 236 q 528 338 524 298 q 530 357 530 348 q 508 433 530 396 q 439 500 482 482 l 423 508 l 368 507 q 300 502 321 507 q 249 484 278 498 q 116 357 155 437 q 102 319 106 336 q 100 281 100 305 l 100 271 q 100 243 100 253 q 102 227 100 233 q 106 212 103 220 q 133 154 116 182 q 169 106 150 125 q 259 62 202 75 q 350 53 306 53 q 382 54 366 53 q 408 57 395 55 q 425 60 420 59 q 437 63 431 63 q 453 56 447 63 q 459 42 459 49 q 451 26 459 34 q 325 0 429 1 q 284 0 304 0 q 256 1 265 1 q 125 53 178 13 q 69 118 96 78 q 30 196 42 159 q 18 283 18 234 l 18 289 q 22 348 18 324 q 37 397 26 371 q 197 568 85 503 q 276 602 238 591 q 364 615 315 613 q 380 616 373 616 q 430 605 416 616 q 440 599 434 602 q 451 594 446 596 q 586 461 544 559 m 343 347 q 350 363 347 357 q 353 370 353 370 q 349 372 353 370 q 340 376 345 374 q 326 382 332 381 q 317 382 323 382 l 310 382 q 293 380 299 382 q 279 372 288 378 q 256 349 267 363 q 239 321 245 335 q 233 284 233 302 q 234 263 233 278 q 248 235 235 248 l 254 229 q 256 229 255 229 q 259 229 257 229 q 264 231 260 229 q 264 231 264 231 q 304 275 281 241 q 343 347 328 309 z "},"A":{"ha":416,"x_min":19,"x_max":398,"o":"m 378 178 q 391 81 387 118 q 397 26 395 45 q 398 7 398 14 q 397 -5 398 1 q 393 -16 397 -11 q 366 -44 385 -35 q 343 -50 355 -50 q 331 -48 337 -50 q 306 -33 317 -43 q 292 -10 295 -22 q 289 12 291 -5 q 286 53 288 30 q 274 203 279 140 q 265 273 268 267 q 248 271 264 273 q 209 266 232 269 q 164 259 186 262 q 128 254 142 256 q 123 252 125 253 q 119 247 121 250 q 115 235 117 243 q 92 154 104 198 q 72 75 80 110 q 64 42 67 53 q 59 26 61 31 q 55 20 57 22 q 40 14 48 14 q 30 17 37 14 q 20 33 22 20 q 19 43 19 37 q 27 111 19 63 q 49 223 35 159 q 79 338 64 288 q 170 528 127 487 q 219 550 193 547 l 225 550 q 268 537 248 550 q 323 446 299 512 q 378 178 353 364 m 257 332 q 258 336 258 333 q 256 351 258 340 q 249 383 254 363 q 239 422 244 404 q 229 450 233 441 l 222 467 l 214 458 q 192 421 205 447 q 163 363 178 396 q 148 327 153 340 q 141 310 142 315 q 140 307 140 308 q 141 306 140 306 q 150 308 142 306 q 170 312 158 309 q 230 326 204 319 q 257 332 255 332 z "},"B":{"ha":372,"x_min":21,"x_max":355,"o":"m 300 231 q 294 226 296 228 l 294 224 q 295 220 294 222 q 300 212 296 218 q 324 161 315 190 q 328 142 328 151 q 329 125 329 136 l 329 114 q 328 86 329 96 q 323 63 326 76 q 309 30 317 43 q 287 2 302 17 q 228 -39 258 -29 q 193 -44 213 -44 q 157 -39 173 -44 q 91 18 114 -25 q 59 144 68 60 q 54 253 54 188 l 54 275 q 57 380 54 328 q 66 454 60 433 q 66 457 66 456 q 65 460 66 458 q 56 465 63 461 q 36 479 45 469 q 23 498 26 489 q 21 516 21 508 q 29 547 21 530 q 60 572 37 564 q 101 577 71 574 q 160 580 132 580 q 339 464 288 576 q 352 426 349 441 q 355 382 355 410 q 351 332 355 353 q 336 290 347 311 q 318 256 329 274 q 300 231 307 238 m 207 176 q 183 224 183 201 l 183 229 q 190 252 184 241 q 209 279 196 264 q 249 372 249 326 q 239 416 249 395 q 155 463 220 463 q 139 463 147 463 l 115 460 l 113 454 q 111 399 111 441 l 111 376 q 112 298 111 342 q 118 218 114 254 q 156 56 132 102 q 178 39 164 43 q 189 37 183 37 q 203 40 196 37 q 219 53 210 43 q 232 71 228 63 q 238 93 236 79 q 239 111 239 104 l 239 116 q 231 144 237 132 q 207 176 224 157 z "},"C":{"ha":404,"x_min":18,"x_max":384,"o":"m 211 -44 q 231 -45 220 -45 q 254 -44 239 -45 q 286 -39 269 -43 q 326 -24 304 -35 q 360 -3 349 -13 q 379 36 379 13 q 355 79 379 65 q 331 85 344 85 q 304 78 318 85 q 289 71 298 75 q 273 62 281 66 q 227 52 250 52 q 155 80 196 52 q 98 186 114 109 q 96 214 96 199 q 114 312 96 258 q 168 396 129 351 q 252 472 208 441 q 353 511 307 511 q 366 511 361 511 q 372 513 370 511 q 378 517 375 514 q 384 531 384 524 q 381 542 384 534 q 366 555 379 549 q 342 558 357 558 q 325 557 338 558 q 292 551 311 557 q 115 434 201 523 q 34 304 54 373 q 20 253 24 273 q 18 211 18 236 l 18 201 q 18 173 18 183 q 20 155 18 163 q 24 138 21 148 q 211 -44 71 -19 z "},"D":{"ha":433,"x_min":17,"x_max":416,"o":"m 411 345 q 415 283 416 320 q 410 218 415 245 q 386 140 401 179 q 353 77 370 102 q 319 38 340 60 q 279 2 297 16 q 155 -45 220 -42 l 144 -45 q 133 -45 140 -45 q 123 -44 126 -45 q 97 -28 106 -38 q 90 -17 93 -23 q 86 0 87 -12 q 83 32 84 11 q 82 88 83 53 q 81 161 81 126 l 81 212 q 81 266 81 227 q 82 349 82 305 l 83 451 l 72 451 q 33 467 48 451 q 17 507 18 483 q 53 561 18 545 q 99 573 69 568 q 157 578 130 578 l 163 578 q 311 516 243 578 q 411 345 390 447 m 313 239 q 315 270 315 254 q 290 369 315 321 q 249 420 276 395 q 195 456 222 444 q 168 461 183 460 q 153 463 159 463 q 141 461 146 463 l 132 460 l 134 422 q 136 376 134 406 q 140 318 138 347 q 143 258 141 289 q 146 208 145 227 q 150 153 147 186 q 155 89 153 119 q 159 47 158 59 q 160 40 159 42 q 163 38 161 38 l 168 38 q 177 41 171 39 q 191 47 184 44 q 238 82 214 59 q 277 130 262 105 q 313 239 303 177 z "},"E":{"ha":456,"x_min":17,"x_max":439,"o":"m 128 -44 q 149 -45 136 -45 q 192 -43 163 -45 q 260 -33 220 -40 q 313 -21 281 -28 q 371 -8 345 -14 q 402 1 397 -1 q 439 51 439 17 q 418 91 439 79 q 394 97 407 97 q 368 92 382 97 q 334 80 359 88 q 278 64 309 73 q 225 51 248 56 q 190 43 209 47 q 155 38 170 40 q 141 37 146 37 l 138 37 q 129 71 133 40 q 122 147 125 101 q 119 240 119 193 l 119 283 l 130 285 q 151 286 134 286 q 188 288 168 287 q 306 296 296 290 q 323 318 321 304 q 324 325 324 321 q 316 344 324 335 q 298 353 309 352 q 290 354 294 354 q 258 351 278 354 q 219 347 242 349 q 178 342 197 344 q 143 338 158 340 q 126 336 129 336 l 119 335 l 119 374 q 120 414 119 391 q 121 456 121 437 l 123 498 l 254 498 q 317 498 292 498 q 356 498 342 498 q 378 499 371 498 q 389 500 385 499 q 395 503 392 501 q 415 533 415 512 l 415 534 q 380 568 414 567 q 368 568 376 568 q 351 566 359 567 q 67 550 321 563 q 38 548 47 549 q 25 544 28 547 q 19 534 21 541 q 17 526 17 530 q 19 519 17 524 q 30 506 22 510 q 55 502 38 503 l 76 500 l 75 491 q 64 383 70 453 q 61 348 62 360 q 58 329 60 335 q 54 319 57 323 q 51 313 52 315 l 51 310 q 51 307 51 309 q 52 302 51 305 q 55 295 54 299 q 56 283 56 291 q 55 259 56 275 q 53 218 54 244 q 51 131 51 170 q 66 -3 51 31 q 128 -44 84 -36 z "},"F":{"ha":323,"x_min":17,"x_max":304,"o":"m 51 -42 q 66 -45 59 -45 q 97 -31 83 -45 q 107 -16 104 -24 q 111 5 111 -9 q 109 47 111 20 q 105 100 107 67 q 100 164 102 133 q 97 216 98 195 q 96 236 96 230 l 96 239 q 116 246 97 242 q 180 256 136 250 q 214 261 203 259 q 231 266 226 264 q 239 273 236 269 q 244 286 244 279 q 243 294 244 288 q 231 305 241 300 q 224 307 229 307 q 212 308 220 308 q 189 307 204 308 q 156 305 174 307 q 123 302 137 304 q 102 300 111 300 l 92 300 q 91 322 92 301 q 90 374 90 343 q 91 434 90 415 q 93 460 92 454 l 96 472 l 112 475 q 158 483 127 479 q 218 491 189 488 q 258 495 248 495 q 274 496 267 495 q 286 498 282 496 q 302 513 299 502 q 304 520 304 517 q 297 534 304 528 q 291 539 294 538 q 281 541 288 541 q 258 543 273 542 q 224 543 241 543 q 198 543 216 543 q 136 538 180 542 q 77 528 96 534 q 48 511 58 522 q 19 383 24 484 q 17 248 17 337 q 18 81 17 159 q 22 -12 20 3 q 33 -30 25 -21 q 51 -42 41 -39 z "},"G":{"ha":391,"x_min":22,"x_max":374,"o":"m 154 -42 q 184 -45 165 -45 q 215 -42 203 -45 q 258 -23 235 -37 q 294 5 280 -10 q 362 137 345 60 q 367 173 365 149 q 372 223 370 197 q 374 262 374 248 q 338 327 372 315 q 331 328 335 328 q 321 327 328 328 q 304 323 315 326 q 273 316 293 321 q 205 299 226 304 q 176 289 185 293 q 159 273 162 283 q 158 267 158 270 q 163 253 158 260 q 171 247 168 248 q 180 245 174 245 q 192 247 185 245 q 205 249 199 248 q 220 252 211 250 q 237 255 229 254 q 252 257 245 256 q 260 259 258 258 q 262 259 262 259 q 263 256 263 258 q 264 248 264 254 q 264 233 264 243 q 263 210 264 224 q 261 165 262 180 q 257 140 260 151 q 205 56 240 81 q 182 47 193 47 q 170 49 178 47 q 142 73 161 52 q 125 96 132 83 q 113 127 119 108 q 102 179 104 152 q 99 255 99 206 l 99 271 q 102 335 99 308 q 115 395 106 362 q 138 448 124 425 q 165 478 151 471 q 178 481 172 481 q 199 474 187 481 q 217 446 210 467 q 241 424 222 424 q 249 425 246 424 q 256 431 252 427 q 260 437 259 434 q 261 443 261 439 q 261 454 262 447 q 233 510 260 485 q 177 535 210 535 l 168 535 q 156 534 161 535 q 142 528 151 533 q 127 520 135 525 q 115 511 120 515 q 42 377 68 471 q 22 216 22 301 q 23 174 22 195 q 52 53 28 99 q 97 -6 68 20 q 154 -42 125 -33 z "},"H":{"ha":503,"x_min":17,"x_max":486,"o":"m 424 -45 q 431 -45 427 -45 q 458 -37 444 -45 q 481 -12 473 -29 q 485 -3 484 -9 q 486 15 486 3 q 486 51 486 27 q 484 116 486 81 q 475 215 481 151 q 469 295 471 265 q 466 353 467 324 q 465 431 465 382 l 463 538 l 456 548 q 420 566 443 566 q 379 531 387 564 q 374 478 377 519 q 369 379 372 437 q 360 309 367 310 q 239 299 351 306 q 192 296 212 298 q 168 294 172 295 l 159 293 l 158 372 q 157 419 157 397 q 164 540 157 507 q 165 550 165 545 q 153 570 165 564 q 142 572 147 572 q 119 551 127 572 q 98 366 106 513 q 96 329 96 344 q 94 306 95 315 q 92 293 93 297 q 91 288 92 289 q 89 286 90 286 q 78 283 87 286 q 55 275 68 280 q 24 262 31 267 q 17 245 17 256 q 19 237 17 241 q 24 231 20 234 q 39 224 31 224 l 41 224 q 67 229 50 224 q 82 232 76 231 q 87 233 85 233 l 89 233 q 89 210 89 231 q 87 155 88 188 q 85 47 85 85 q 85 15 85 37 q 90 -16 85 -8 q 126 -39 101 -39 q 133 -38 130 -39 q 153 -28 144 -37 q 165 -8 163 -19 q 165 5 165 -5 q 165 40 165 14 q 163 113 164 66 q 160 194 161 161 q 159 231 159 228 l 159 238 l 371 238 l 373 208 q 374 159 374 193 q 375 87 375 125 q 375 36 375 54 q 376 8 376 17 q 377 -6 376 -1 q 380 -13 378 -10 q 424 -45 394 -39 z "},"I":{"ha":119,"x_min":18,"x_max":102,"o":"m 49 -43 q 54 -45 51 -44 q 62 -45 58 -45 q 70 -44 66 -45 q 76 -38 73 -42 q 80 -32 79 -35 q 83 -22 82 -28 q 85 -1 84 -15 q 87 37 85 13 q 89 83 87 60 q 91 121 90 107 q 101 389 100 221 l 102 513 l 96 523 q 66 545 85 542 q 60 546 63 546 q 31 534 45 546 q 22 524 25 529 q 18 505 19 518 q 18 489 18 499 q 18 458 18 479 q 22 391 19 438 q 27 293 24 333 q 32 199 30 239 q 33 115 33 160 q 35 22 34 55 q 40 -26 37 -12 q 49 -43 43 -40 z "},"J":{"ha":262,"x_min":18,"x_max":237,"o":"m 75 -45 q 99 -50 87 -50 q 161 -23 127 -50 q 215 66 194 3 q 237 254 237 138 q 234 347 237 298 q 233 370 233 359 q 228 437 230 411 q 225 479 227 464 q 223 501 224 494 q 221 512 222 509 q 218 519 220 515 q 218 521 218 519 q 210 532 214 528 q 198 540 206 536 q 186 545 191 544 l 180 546 l 174 545 q 136 521 149 543 q 133 512 134 516 q 132 503 132 509 q 132 486 132 497 q 136 447 133 475 q 142 388 138 419 q 153 304 149 334 q 157 253 156 274 q 157 203 157 231 l 157 191 q 153 109 157 142 q 136 53 148 77 q 120 29 130 40 q 103 13 111 18 q 96 11 98 11 q 91 15 94 11 q 73 58 79 26 q 70 87 70 72 q 76 130 70 107 q 80 151 80 143 q 80 156 80 152 q 74 165 80 159 q 58 172 66 172 q 42 164 50 172 q 28 135 35 156 q 18 95 21 114 q 18 77 18 87 q 19 53 18 68 q 24 20 20 37 q 75 -45 39 -29 z "},"K":{"ha":409,"x_min":18,"x_max":386,"o":"m 52 -42 q 66 -45 58 -45 q 77 -44 69 -45 q 92 -39 84 -44 q 104 -25 99 -34 q 109 -7 109 -16 q 106 21 109 -4 q 100 81 104 47 q 95 138 97 115 q 93 163 93 161 q 104 153 94 163 q 127 129 113 144 q 199 58 157 96 q 272 -5 241 19 q 295 -22 283 -14 q 316 -34 307 -30 q 334 -42 328 -41 q 342 -43 337 -43 l 347 -43 q 384 -14 376 -38 q 386 0 386 -7 q 370 33 386 18 q 362 40 368 36 q 350 47 356 43 q 245 123 313 67 q 138 224 177 180 q 121 243 128 235 q 113 253 115 251 l 113 254 q 118 264 113 256 q 138 290 123 271 q 196 363 173 334 q 233 410 219 392 q 254 437 247 427 q 262 452 260 447 q 264 460 264 457 q 256 478 264 471 q 243 483 251 483 q 237 482 240 483 q 223 470 235 482 q 182 427 210 458 q 102 341 153 397 q 86 325 93 331 q 79 318 80 318 q 78 335 79 319 q 75 373 77 350 q 73 435 73 407 q 73 467 73 452 q 75 498 74 485 q 75 509 75 505 q 75 515 75 513 q 60 532 73 528 q 54 532 57 532 q 37 526 45 532 q 32 517 34 522 q 28 502 30 512 q 23 472 26 491 q 20 414 22 459 q 18 321 18 368 l 18 257 q 19 224 18 248 q 21 170 20 199 q 26 33 24 75 q 31 -14 28 -9 q 52 -42 36 -33 z "},"L":{"ha":285,"x_min":18,"x_max":265,"o":"m 56 -41 q 64 -44 60 -43 q 72 -45 66 -45 q 80 -45 74 -45 q 105 -43 87 -45 q 157 -37 124 -41 q 211 -32 188 -34 q 235 -31 229 -31 l 241 -31 q 260 -22 253 -31 q 265 -9 265 -17 q 263 -1 265 -5 q 258 9 261 5 q 247 14 255 12 q 220 15 238 15 q 200 16 212 16 q 172 15 188 16 l 98 15 l 98 21 q 99 35 98 24 q 101 62 100 47 q 109 338 109 152 l 109 397 l 107 532 l 101 543 q 84 559 94 553 q 64 564 74 564 q 37 556 52 564 q 18 523 22 548 l 18 512 q 18 487 18 505 q 20 439 18 469 q 24 389 22 410 q 26 359 24 379 q 28 318 27 339 q 31 270 29 297 q 33 222 32 243 q 35 161 35 201 q 36 81 36 121 l 37 -12 l 42 -24 q 48 -33 45 -28 q 56 -41 52 -38 z "},"M":{"ha":427,"x_min":18,"x_max":409,"o":"m 333 -41 q 347 -43 339 -43 q 361 -43 351 -43 q 378 -39 370 -42 q 408 3 401 -26 q 409 15 409 5 q 407 64 409 28 q 402 155 406 100 q 395 253 399 211 q 390 299 393 274 q 387 340 388 323 q 357 516 376 458 q 287 580 338 580 l 283 580 q 241 567 260 580 q 208 524 225 555 q 177 454 190 493 q 170 431 174 441 q 166 420 167 422 q 165 419 166 419 q 153 446 163 419 q 114 507 133 494 q 86 515 102 515 q 75 514 81 515 q 57 504 66 512 q 43 486 48 496 q 25 385 36 469 q 18 293 20 348 q 18 222 18 257 q 18 172 18 205 q 22 115 19 138 q 47 87 28 87 q 54 87 51 87 q 64 94 61 90 q 68 108 67 98 q 69 141 69 118 q 73 227 69 175 q 82 322 77 279 q 91 379 87 366 q 97 368 92 379 q 107 336 101 356 q 118 305 115 315 q 125 289 122 294 q 133 279 128 284 q 169 263 150 263 q 191 269 179 263 q 219 300 207 276 q 249 376 232 323 q 261 412 256 397 q 267 429 267 427 l 268 430 q 271 421 269 430 q 275 367 273 406 q 279 278 277 328 q 284 186 281 244 q 290 77 287 128 q 294 12 293 26 q 296 1 295 7 q 299 -9 298 -5 q 314 -28 303 -18 q 333 -41 325 -39 z "},"N":{"ha":436,"x_min":18,"x_max":418,"o":"m 296 -42 q 322 -46 308 -46 q 334 -46 324 -46 q 355 -40 344 -45 q 401 32 386 -25 q 418 154 416 84 l 418 170 q 408 381 418 240 q 402 454 404 427 q 398 496 400 481 q 393 517 396 510 q 386 530 391 524 q 349 555 372 549 q 338 555 343 555 q 287 524 306 555 q 283 511 284 517 q 282 502 282 507 q 283 484 282 496 q 286 439 283 472 q 302 210 290 397 q 304 162 303 185 q 304 130 304 140 l 304 110 l 290 138 q 273 176 283 151 q 251 225 262 200 q 228 280 241 250 q 206 330 215 309 q 189 371 197 351 q 176 401 180 391 q 150 455 163 431 q 128 488 137 479 q 93 505 111 505 q 65 496 79 505 q 50 479 56 490 q 39 445 43 469 q 30 376 35 421 q 29 368 30 372 q 23 317 25 334 q 20 288 21 300 q 19 257 20 276 q 18 253 19 255 q 18 218 18 237 q 19 166 18 199 q 23 99 20 134 q 30 52 26 64 q 46 37 35 40 q 51 37 49 37 q 66 43 59 37 q 70 48 68 45 q 72 52 72 50 q 72 75 72 54 q 73 127 73 96 q 76 222 73 184 q 88 309 79 260 q 93 340 91 326 q 96 359 96 355 q 100 368 98 368 q 104 361 102 368 q 112 337 105 357 q 129 293 119 318 q 149 239 138 268 q 165 192 159 210 q 262 -19 224 25 q 278 -33 271 -28 q 296 -42 286 -38 z "},"O":{"ha":467,"x_min":18,"x_max":448,"o":"m 162 -41 q 199 -45 178 -45 q 216 -45 202 -45 q 248 -41 230 -45 q 295 -22 269 -35 q 340 6 322 -8 q 399 77 372 33 q 439 167 427 121 q 445 192 444 180 q 447 230 446 205 q 448 248 448 239 q 423 370 448 317 q 335 471 393 442 q 266 493 294 493 q 227 477 242 493 q 210 438 210 461 l 210 435 q 258 378 210 393 q 293 359 281 370 q 315 325 304 349 q 337 230 337 277 q 328 170 337 200 q 280 87 311 122 q 254 67 271 77 q 223 52 238 57 q 197 47 211 47 q 182 48 193 47 q 157 55 172 48 q 102 138 119 75 q 98 163 100 149 q 96 208 97 178 l 96 229 q 98 277 96 257 q 110 328 100 297 q 153 424 127 384 q 189 464 165 443 q 231 496 212 485 q 245 503 239 500 q 256 505 250 505 q 273 506 262 506 q 301 509 294 506 q 311 522 309 513 q 312 529 312 526 q 286 552 312 546 q 261 555 274 555 q 199 538 232 555 q 64 395 113 494 q 42 341 52 371 q 27 288 32 311 q 20 227 22 264 q 18 184 18 203 q 18 165 18 174 q 162 -41 31 -9 z "},"P":{"ha":410,"x_min":25,"x_max":391,"o":"m 333 505 q 391 377 391 454 l 391 368 q 334 232 391 286 q 253 187 293 191 q 240 186 248 186 q 227 184 233 185 l 214 183 l 216 174 q 219 143 216 170 q 224 81 221 117 q 229 26 227 46 q 229 4 229 13 q 229 -8 229 -1 q 227 -20 229 -15 q 221 -31 225 -26 q 207 -41 216 -36 q 191 -45 197 -45 q 182 -44 187 -45 q 174 -41 178 -43 q 157 -26 164 -37 l 151 -14 l 149 100 q 146 217 147 150 q 144 336 144 283 q 142 423 143 388 q 141 458 142 458 q 131 452 140 458 q 111 437 123 446 q 87 421 96 425 q 69 417 79 417 q 29 444 43 417 q 25 460 25 452 q 44 496 25 479 q 77 520 58 508 q 115 541 97 532 q 199 559 157 559 q 218 558 209 559 q 333 505 284 550 m 323 328 q 325 345 324 334 l 326 356 l 325 368 q 324 386 325 379 q 321 397 323 392 q 315 411 319 403 q 260 465 299 446 q 226 477 244 473 q 208 479 215 479 q 198 478 202 479 q 193 476 195 477 q 192 473 192 475 q 191 465 191 470 q 197 391 192 453 q 208 261 201 330 q 213 232 211 233 q 221 233 214 232 q 236 235 227 234 q 265 245 253 239 q 291 269 277 252 q 323 328 316 296 z "},"Q":{"ha":467,"x_min":18,"x_max":450,"o":"m 438 -45 q 448 -56 446 -52 q 450 -66 450 -60 q 439 -86 450 -80 q 428 -89 434 -89 q 416 -86 422 -89 q 399 -72 412 -84 q 368 -42 385 -60 q 338 -14 351 -25 q 325 -2 326 -2 q 320 -4 323 -2 q 312 -9 316 -6 q 281 -25 300 -17 q 248 -38 262 -34 q 197 -44 224 -44 q 178 -44 194 -44 q 141 -37 162 -44 q 110 -20 127 -31 q 81 5 94 -8 q 20 140 31 57 q 18 183 18 157 q 18 211 18 190 q 21 258 18 233 q 87 439 36 359 q 134 492 106 466 q 185 528 162 517 q 195 535 192 532 q 201 545 199 538 q 236 575 213 568 q 253 578 244 578 q 283 570 268 578 q 321 545 297 563 q 361 511 345 528 q 444 338 420 452 q 449 266 449 311 q 443 193 448 220 q 377 52 427 113 l 366 37 l 383 19 q 399 1 391 11 q 414 -16 408 -9 q 427 -32 420 -24 q 438 -45 433 -40 m 339 250 q 338 277 339 263 q 336 298 338 290 q 315 368 330 331 q 285 422 300 404 q 260 445 277 431 q 229 467 243 458 q 221 473 225 470 q 214 479 216 476 l 209 484 l 199 477 q 169 448 187 468 q 141 413 151 429 q 92 237 97 340 q 92 215 92 226 q 137 70 92 114 q 162 50 151 55 q 184 47 171 47 l 193 47 q 225 52 215 48 q 236 57 230 54 q 245 62 241 60 l 256 68 l 248 77 q 231 95 244 81 q 203 127 218 110 q 175 160 186 146 q 161 178 163 174 q 159 193 159 185 q 172 220 159 208 q 191 227 180 227 q 212 221 203 227 q 229 203 216 218 q 258 167 241 188 q 286 132 275 146 q 299 116 298 117 q 306 124 301 116 q 317 143 311 132 q 326 165 322 155 q 336 206 333 186 q 339 250 339 225 z "},"R":{"ha":460,"x_min":18,"x_max":443,"o":"m 420 58 q 443 34 443 48 q 431 14 443 18 q 420 11 427 11 q 380 22 406 11 q 272 85 324 46 q 195 159 219 123 q 190 165 192 163 q 189 166 189 166 q 190 141 189 165 q 193 81 191 116 q 196 19 195 45 q 197 -6 197 2 l 197 -12 q 176 -41 193 -31 q 157 -45 167 -45 q 140 -41 149 -45 q 127 -31 133 -38 q 119 -17 121 -24 l 119 3 q 119 68 119 20 q 121 210 119 116 q 122 365 122 302 q 123 430 123 427 l 122 430 q 115 428 121 430 q 100 422 109 426 q 69 412 81 412 l 65 412 q 43 417 54 412 q 18 457 20 429 l 18 463 q 18 472 18 468 q 23 484 19 476 q 35 499 27 493 q 60 514 42 506 q 113 534 78 522 q 196 561 167 555 q 230 564 213 564 q 256 562 243 564 q 357 517 321 555 q 389 436 389 484 q 389 425 389 431 q 367 363 387 395 q 304 284 348 331 q 260 236 273 253 q 246 209 247 219 l 246 207 q 253 187 246 198 q 288 148 264 172 q 341 104 313 125 q 367 86 351 96 q 397 68 382 77 q 420 58 412 60 m 212 291 q 228 310 218 298 q 248 334 238 323 q 291 390 278 369 q 305 428 304 411 l 305 433 q 260 470 305 463 q 242 471 252 471 q 178 456 212 471 l 172 453 l 173 435 q 175 400 174 428 q 179 338 177 372 q 182 276 181 303 q 184 247 184 250 l 184 246 q 186 249 184 246 q 192 259 189 252 q 201 275 195 266 q 212 291 207 283 z "},"S":{"ha":363,"x_min":21,"x_max":344,"o":"m 160 -41 q 187 -45 174 -45 q 247 -20 219 -45 q 288 71 286 18 q 288 83 288 77 q 268 164 288 121 q 190 278 248 208 q 127 369 145 334 q 113 427 113 399 q 115 451 113 432 q 141 483 117 469 q 166 488 149 487 q 176 488 172 488 q 193 486 186 488 q 237 443 210 481 q 253 425 247 431 q 265 416 258 419 q 290 410 278 410 q 321 419 304 410 q 343 458 338 429 q 344 463 344 460 q 319 514 344 484 q 184 590 260 590 q 170 589 177 590 q 65 545 104 587 q 21 440 21 502 l 21 429 q 109 250 21 345 q 154 198 138 216 q 178 169 170 180 q 193 148 186 158 q 205 127 199 138 q 214 110 211 117 q 220 79 219 96 q 221 69 221 74 q 219 52 221 60 q 209 32 216 42 q 194 16 201 21 q 186 14 189 14 l 184 14 q 176 15 181 14 q 141 45 154 22 q 136 59 137 53 q 135 75 135 64 q 136 90 135 82 q 137 103 136 98 q 138 109 138 106 q 137 114 138 111 q 131 119 136 116 q 115 125 123 125 q 105 124 113 125 q 92 109 98 122 q 87 96 88 104 q 85 75 86 89 l 85 62 q 86 50 85 56 q 90 33 87 43 q 160 -41 109 -23 z "},"T":{"ha":422,"x_min":22,"x_max":403,"o":"m 194 -51 q 200 -52 197 -52 q 212 -48 205 -52 q 222 -36 218 -45 q 223 -8 222 -32 q 225 47 224 15 q 227 117 226 79 q 230 180 229 155 q 233 252 232 205 q 235 345 234 299 q 236 427 235 391 q 237 474 237 464 l 239 496 l 307 495 q 345 494 330 494 q 366 495 359 494 q 377 496 374 495 q 385 498 381 497 q 401 520 397 506 q 403 530 403 525 q 398 546 403 538 q 383 558 391 555 q 360 562 375 562 q 284 558 340 562 q 182 551 229 555 q 132 547 160 549 q 84 544 104 545 q 53 543 63 543 q 38 541 42 542 q 31 538 33 540 q 22 521 22 530 q 24 510 22 515 q 29 504 26 507 q 35 500 32 501 q 55 497 39 498 q 92 494 71 495 q 131 492 113 492 l 156 492 l 157 472 q 158 440 157 463 q 161 393 159 418 q 165 295 163 341 q 169 161 167 248 q 173 39 170 96 q 179 -34 176 -18 q 185 -44 180 -39 q 194 -51 189 -49 z "},"U":{"ha":363,"x_min":18,"x_max":345,"o":"m 153 -45 q 171 -47 162 -47 q 288 32 245 -47 q 340 269 323 96 q 344 335 342 292 q 345 424 345 379 l 345 445 q 344 494 345 475 q 341 526 343 515 q 336 543 340 536 q 322 564 332 555 q 301 576 312 572 q 285 578 293 578 q 255 569 271 578 q 232 538 239 561 q 231 528 231 535 q 231 515 231 525 q 234 473 231 506 q 240 315 240 387 q 230 146 240 235 q 182 38 219 56 q 168 35 175 35 q 135 56 151 35 q 81 244 96 109 q 77 347 77 284 q 76 393 76 372 q 77 443 76 423 q 79 464 79 456 q 79 472 79 467 q 76 481 79 477 q 66 489 73 486 q 58 492 60 492 q 50 490 54 492 q 43 485 46 488 q 38 479 39 482 q 23 385 29 458 q 18 267 18 325 l 18 242 q 46 65 22 134 q 153 -45 82 -33 z "},"V":{"ha":365,"x_min":17,"x_max":347,"o":"m 141 -43 q 154 -45 147 -45 q 171 -41 163 -45 q 195 -18 184 -35 q 217 37 205 -1 q 229 75 222 52 q 242 116 236 97 q 319 367 276 218 q 341 443 334 418 q 347 479 347 468 l 347 482 q 343 498 347 492 q 331 515 339 507 q 315 526 323 522 q 296 530 306 530 q 276 526 288 530 q 253 508 263 522 q 248 498 250 504 q 242 481 245 493 q 233 444 239 469 q 217 378 227 420 q 194 281 208 337 q 169 182 180 226 q 155 132 157 138 l 155 132 q 154 130 155 130 q 153 131 153 130 q 150 137 152 132 q 146 151 149 142 q 140 175 144 160 q 131 210 136 189 q 119 260 126 231 q 113 282 116 271 q 81 406 93 362 q 64 468 70 450 q 54 489 58 486 q 47 494 50 492 q 38 495 43 495 q 17 473 19 495 q 21 446 17 470 q 31 390 25 422 q 43 324 37 358 q 53 269 50 290 q 90 79 71 163 q 115 -22 108 -6 q 141 -43 125 -38 z "},"W":{"ha":439,"x_min":17,"x_max":422,"o":"m 94 -43 q 105 -45 99 -45 q 124 -41 113 -45 q 146 -24 136 -37 q 214 199 176 14 q 223 240 220 230 q 227 248 225 248 l 227 246 q 247 167 240 193 q 260 120 254 141 q 290 40 275 66 q 326 5 305 14 q 349 0 338 0 q 378 10 362 0 q 402 51 395 20 q 414 146 410 81 q 420 344 418 211 l 422 477 l 416 484 q 401 490 409 490 q 388 484 395 490 q 377 464 380 479 q 370 414 374 449 q 354 237 359 289 q 347 170 349 185 q 345 150 346 159 q 344 139 344 141 q 343 136 344 136 q 341 138 342 136 q 310 296 336 151 q 299 359 304 332 q 293 389 294 385 q 250 422 282 416 l 247 422 q 215 409 231 422 q 200 378 200 396 q 198 364 200 374 q 191 341 195 353 q 179 300 187 328 q 163 242 171 273 q 124 112 131 128 q 122 108 123 108 q 121 109 121 108 q 119 123 121 111 q 113 274 113 189 q 117 428 113 344 q 119 468 119 454 q 116 489 119 481 q 108 502 113 496 q 71 519 94 519 l 66 519 q 24 491 37 519 l 17 477 l 17 401 q 22 244 18 307 q 37 110 26 180 q 60 -6 48 25 q 94 -43 71 -37 z "},"X":{"ha":422,"x_min":18,"x_max":405,"o":"m 349 -43 q 363 -45 356 -45 q 390 -35 376 -45 q 405 -4 405 -25 q 404 6 405 2 q 400 18 404 11 q 389 39 396 26 q 368 75 381 52 q 337 126 354 97 q 309 178 321 155 q 288 218 298 199 q 273 246 277 238 l 262 264 l 304 347 q 353 441 336 411 q 381 477 371 471 q 397 492 393 487 q 401 503 401 496 q 385 525 401 521 q 378 526 380 526 q 374 526 376 526 q 365 523 372 526 q 319 483 344 514 q 252 377 294 451 l 224 330 l 206 360 q 171 424 191 386 q 138 494 152 462 q 127 520 131 511 q 119 534 123 529 q 111 543 115 538 q 93 552 104 548 q 73 557 81 557 q 55 553 66 557 q 37 543 44 549 q 29 534 33 540 q 22 524 25 529 q 18 511 19 517 l 18 494 q 19 480 18 486 q 25 463 20 474 q 41 431 30 452 q 79 360 60 391 q 130 281 97 330 l 165 228 l 157 211 q 101 116 134 168 q 43 33 68 64 q 32 5 32 18 q 33 -4 32 0 q 64 -36 41 -31 q 73 -37 68 -37 q 109 -20 92 -37 q 145 34 121 -7 q 191 117 170 74 l 211 155 l 224 133 q 287 32 255 79 q 332 -32 318 -16 q 340 -38 336 -35 q 349 -43 345 -41 z "},"Y":{"ha":358,"x_min":19,"x_max":341,"o":"m 129 -44 q 140 -45 134 -45 q 151 -45 144 -45 q 166 -40 159 -44 q 201 12 192 -28 q 257 218 224 99 q 311 402 291 336 q 341 512 341 498 q 338 528 341 519 q 330 542 334 536 q 316 550 326 547 q 300 555 307 554 q 281 550 291 555 q 267 538 272 545 q 259 522 264 534 q 248 496 254 510 q 238 467 243 481 q 231 446 233 453 q 220 416 228 439 q 201 366 212 393 l 178 300 l 155 333 q 115 398 136 363 q 79 463 94 434 q 64 496 64 491 q 62 500 64 497 q 57 507 60 503 q 41 513 50 513 q 30 509 36 513 q 19 488 19 503 l 19 483 q 67 371 24 458 q 141 245 117 269 l 155 231 l 121 130 q 103 74 110 95 q 93 41 96 53 q 89 23 90 30 q 88 12 88 17 q 89 -5 88 1 q 95 -18 90 -10 q 110 -34 101 -27 q 129 -44 119 -41 z "},"Z":{"ha":436,"x_min":39,"x_max":416,"o":"m 268 -41 q 337 -43 312 -43 q 360 -42 345 -43 q 385 -37 376 -41 q 401 -24 393 -33 q 413 -7 409 -16 q 416 10 416 1 q 412 32 416 18 q 394 56 408 45 q 375 64 386 61 q 362 66 368 66 q 357 66 359 66 q 324 65 354 66 q 250 64 294 64 q 181 63 206 63 q 148 64 148 63 q 160 83 148 66 q 191 124 172 100 q 225 172 208 149 q 249 205 241 195 q 353 406 334 327 q 358 444 358 425 q 358 462 358 448 q 351 492 357 476 q 292 530 334 530 l 289 530 q 134 478 234 530 q 95 456 104 463 q 85 443 85 449 l 85 437 q 86 430 85 433 q 93 422 87 427 q 103 417 98 418 l 105 417 q 123 421 111 417 q 161 435 135 425 q 281 469 245 469 q 291 467 289 469 q 294 454 294 464 q 229 315 294 411 q 190 261 212 291 q 123 180 167 232 q 86 135 103 155 q 64 106 69 114 q 39 45 39 73 q 56 1 39 21 q 117 -29 73 -20 q 268 -41 161 -38 z "},"[":{"ha":254,"x_min":18,"x_max":235,"o":"m 59 9 q 68 8 62 8 q 81 7 75 7 q 184 14 151 13 q 202 14 193 14 q 215 16 211 15 q 233 30 229 19 q 235 37 235 34 q 229 52 235 45 q 219 58 227 56 q 194 61 211 60 q 148 63 178 62 l 99 65 l 95 116 q 89 232 91 173 q 85 402 87 290 l 84 547 l 90 548 q 118 552 97 549 q 160 557 138 555 q 188 559 181 559 q 207 561 201 559 q 215 572 212 564 q 218 579 218 576 q 215 587 218 583 q 193 604 211 600 q 162 606 182 606 q 124 605 146 606 q 86 602 102 604 q 67 600 71 601 q 50 587 59 597 q 39 570 41 578 q 28 427 33 528 q 24 357 26 395 q 21 290 22 318 q 18 160 18 237 l 18 134 l 19 41 l 26 32 q 59 9 35 18 z "},"\\":{"ha":400,"x_min":18,"x_max":380,"o":"m 317 7 q 338 2 328 2 q 360 9 347 2 q 378 35 373 16 q 380 44 380 40 q 368 73 380 59 q 358 86 365 77 q 346 104 352 95 q 329 130 340 115 q 309 160 319 146 q 242 263 284 197 q 168 387 200 330 q 138 436 153 411 q 115 475 123 462 q 96 509 106 489 q 77 545 85 528 q 63 573 70 561 q 56 587 57 585 q 41 593 50 593 q 32 591 39 593 q 20 579 25 590 q 18 570 18 575 q 20 558 18 566 q 32 525 22 550 q 84 412 46 489 q 166 252 123 334 q 239 121 210 170 q 260 87 249 105 q 277 57 271 68 q 298 22 290 33 q 317 7 307 11 z "},"]":{"ha":227,"x_min":17,"x_max":210,"o":"m 92 4 q 136 1 118 1 q 169 5 153 1 q 193 23 184 8 q 198 33 196 28 q 202 42 201 39 q 207 156 205 57 q 210 393 210 255 l 210 570 l 202 587 q 191 604 196 598 q 177 610 186 609 q 148 612 168 612 q 93 609 119 612 q 55 602 67 606 q 39 587 42 597 q 38 582 38 584 q 45 566 38 574 l 52 559 l 121 559 l 122 541 q 124 512 123 532 q 127 469 125 492 q 142 162 131 414 q 144 117 143 140 q 145 83 145 95 l 146 56 l 111 56 l 56 56 q 48 56 52 56 q 17 33 17 56 q 43 10 17 17 q 63 7 49 9 q 92 4 77 5 z "},"^":{"ha":281,"x_min":18,"x_max":264,"o":"m 24 321 q 37 316 29 316 l 39 316 q 52 320 46 316 q 59 332 54 323 q 70 353 64 340 q 87 391 75 366 q 111 441 99 416 l 140 500 l 163 427 q 182 374 174 397 q 193 347 190 351 q 226 329 205 329 q 237 329 227 329 q 259 349 248 329 q 263 365 263 357 q 259 388 264 373 q 243 431 254 402 q 175 595 187 574 q 146 611 165 611 l 142 611 q 114 591 124 610 q 96 552 109 582 q 69 486 83 522 q 44 423 54 450 q 23 366 30 385 q 18 338 18 347 q 18 332 18 337 q 24 321 18 327 z "},"_":{"ha":340,"x_min":18,"x_max":318,"o":"m 37 3 q 77 3 40 3 q 168 3 114 3 l 178 3 q 251 3 225 3 q 289 5 277 3 q 305 9 301 6 q 312 17 309 12 l 313 18 q 318 36 318 28 q 313 52 318 45 q 282 66 303 66 l 280 66 q 254 64 274 65 q 210 61 235 62 q 86 52 136 56 q 30 45 37 47 q 20 35 24 43 q 18 25 18 30 q 18 22 18 24 q 25 10 20 16 q 37 3 31 5 z "},"`":{"ha":155,"x_min":18,"x_max":138,"o":"m 94 421 q 102 416 98 418 q 113 415 106 415 q 123 417 120 415 q 132 424 127 418 q 138 433 136 429 q 138 437 138 435 q 138 444 138 441 q 134 459 137 451 q 122 481 131 467 q 95 526 109 503 q 68 566 80 549 q 54 586 57 583 q 40 591 47 591 q 35 591 39 591 q 24 585 31 591 q 18 570 18 579 q 19 563 18 569 q 32 535 20 557 q 48 505 38 524 q 66 468 58 486 q 94 421 87 428 z "},"a":{"ha":361,"x_min":17,"x_max":344,"o":"m 338 93 q 342 81 341 87 q 344 67 344 76 q 325 26 344 41 q 264 -5 306 12 q 186 -28 222 -22 q 150 -31 168 -31 q 119 -29 134 -31 q 72 -11 93 -24 q 33 34 48 5 q 17 90 18 62 q 122 205 22 179 q 161 208 138 208 q 188 208 168 208 q 232 201 208 207 q 248 197 241 198 q 254 196 252 196 l 254 196 q 255 199 255 197 q 254 211 255 203 q 251 235 253 219 q 248 265 250 250 q 244 287 245 279 q 232 332 239 312 q 220 352 224 352 q 200 337 212 352 q 177 302 188 323 q 154 285 168 285 q 143 288 149 285 q 132 305 132 292 q 144 342 132 319 q 195 399 166 387 q 224 406 211 406 q 317 242 290 406 q 330 155 326 191 q 334 116 334 127 l 334 111 q 333 107 333 109 q 334 102 333 105 q 338 93 334 99 m 186 75 q 215 86 199 79 q 243 99 231 93 q 255 106 255 105 q 249 111 255 108 q 234 118 242 115 q 218 123 225 121 q 201 125 212 125 q 178 126 190 126 q 139 122 154 126 q 115 109 125 119 q 109 100 110 103 q 108 95 108 98 l 108 92 q 116 77 110 85 q 128 67 122 69 q 138 66 132 66 q 158 67 145 66 q 186 75 170 69 z "},"b":{"ha":315,"x_min":18,"x_max":298,"o":"m 228 275 q 298 153 298 241 q 267 52 297 95 q 193 0 237 9 q 177 -1 186 -1 q 155 1 169 -1 q 125 7 141 2 q 120 9 123 9 q 107 13 111 13 l 106 13 q 104 9 104 12 q 105 3 104 7 l 105 -1 q 106 -13 106 -8 q 104 -28 106 -21 q 95 -43 102 -36 q 68 -57 83 -57 q 56 -55 62 -57 q 40 -43 47 -52 q 31 -24 33 -34 q 28 21 31 -19 q 23 149 26 60 q 19 255 21 198 q 18 356 18 312 l 18 382 q 18 410 18 404 q 38 439 21 436 l 41 439 q 53 436 47 439 q 62 427 59 433 q 64 412 62 423 q 66 387 65 401 q 73 307 70 343 q 77 261 76 271 l 79 250 l 97 263 q 173 289 135 289 q 228 275 201 289 m 231 157 l 231 164 q 192 227 231 210 q 167 231 180 231 q 100 200 135 231 l 85 186 l 89 152 q 92 126 90 137 q 93 115 93 116 q 96 112 94 113 q 103 111 99 111 q 113 107 107 110 q 122 102 118 104 q 179 77 155 77 q 189 78 184 77 q 199 86 193 80 q 220 115 210 96 q 228 135 226 127 q 231 157 230 142 z "},"c":{"ha":345,"x_min":31,"x_max":323,"o":"m 131 -35 q 155 -38 142 -38 q 171 -37 159 -38 q 198 -31 182 -37 q 281 39 248 -11 q 304 83 292 55 q 321 127 317 111 q 323 142 323 135 q 307 178 323 164 q 277 190 294 190 q 256 185 267 190 q 239 170 245 180 q 224 134 233 160 q 214 107 218 117 q 207 91 210 98 q 196 75 203 84 q 155 47 174 47 q 138 54 146 47 q 111 115 121 72 q 103 186 103 150 q 104 203 103 195 q 118 290 106 249 q 147 351 130 330 q 166 366 156 360 q 184 372 176 372 q 201 365 194 372 q 210 346 208 357 q 218 328 212 334 q 226 322 222 323 l 235 322 q 250 330 245 323 q 255 351 254 336 l 255 357 q 254 368 255 363 q 250 380 254 372 q 216 418 239 405 q 206 422 210 420 q 196 424 202 424 q 180 425 191 425 q 164 424 170 425 q 153 422 158 424 q 141 416 148 420 q 105 389 125 409 q 86 368 93 377 q 73 345 80 359 q 31 164 31 256 q 37 100 31 132 q 131 -35 57 -16 z "},"d":{"ha":329,"x_min":25,"x_max":311,"o":"m 311 12 q 311 -16 311 -4 q 311 -30 311 -21 q 309 -45 311 -38 q 303 -58 307 -52 q 290 -69 298 -64 q 273 -73 281 -73 q 264 -72 269 -73 q 255 -68 260 -71 q 239 -53 245 -63 q 235 -44 236 -48 q 234 -30 234 -39 l 234 0 l 235 42 l 218 24 q 159 -18 190 -5 q 144 -22 151 -21 q 123 -24 136 -24 q 102 -23 109 -24 q 87 -17 96 -22 q 25 117 25 13 q 26 146 25 131 q 49 241 31 204 q 75 277 58 259 q 111 303 93 294 q 123 309 118 307 q 133 311 127 311 q 149 311 139 311 q 165 311 159 311 q 175 309 170 311 q 189 302 180 307 q 205 293 196 299 q 220 281 214 287 l 235 268 l 235 279 q 234 299 235 284 q 232 333 233 315 q 230 376 231 352 q 229 419 229 400 l 227 462 l 233 469 q 240 475 237 473 q 249 476 243 476 q 258 475 255 476 q 265 470 262 474 q 269 464 267 467 q 272 459 271 461 q 279 410 273 453 q 290 316 284 368 q 299 228 296 264 q 301 189 300 216 q 305 130 303 161 q 308 65 307 98 q 311 12 310 32 m 208 210 l 210 221 l 196 234 q 173 250 184 244 q 153 257 161 256 q 122 239 140 257 q 95 146 95 214 l 95 142 q 106 69 95 92 q 117 54 111 56 q 120 54 119 54 q 135 60 125 54 q 186 133 163 77 q 200 172 194 150 q 208 210 206 194 z "},"e":{"ha":299,"x_min":28,"x_max":282,"o":"m 260 60 q 275 54 269 60 q 282 39 282 47 q 274 16 282 30 q 256 -8 267 2 q 201 -38 233 -29 q 170 -43 184 -43 q 146 -39 157 -43 q 55 70 85 -14 q 33 170 42 110 q 28 235 28 204 q 56 372 28 312 q 144 440 85 428 q 158 441 151 441 q 217 418 189 441 q 258 349 245 396 q 262 313 262 332 q 254 255 262 290 q 222 189 246 220 q 130 134 189 149 q 116 130 122 132 q 109 128 110 128 l 109 127 q 110 118 109 125 q 114 99 111 111 q 120 78 117 87 q 146 28 129 47 q 170 13 159 16 q 177 12 173 12 q 201 17 186 12 q 214 22 208 19 q 227 33 220 26 q 244 52 233 39 q 252 59 248 57 q 260 60 255 60 m 102 232 l 113 235 q 124 238 118 236 q 135 243 130 241 q 160 276 151 253 q 169 321 170 299 q 157 353 169 344 q 153 353 155 353 q 142 349 149 353 q 128 334 135 345 q 103 245 111 302 l 102 232 z "},"f":{"ha":241,"x_min":18,"x_max":208,"o":"m 54 -80 q 75 -85 65 -85 q 98 -77 85 -85 q 115 -47 112 -70 l 115 -43 q 106 39 115 -27 q 87 212 87 173 l 87 219 l 87 239 l 106 245 q 124 251 114 248 q 144 254 135 254 q 170 260 162 257 q 180 271 178 264 q 182 280 182 276 q 162 301 182 294 q 149 302 157 302 q 130 301 143 302 q 96 297 117 300 l 88 296 l 90 307 q 108 369 96 344 q 134 393 120 393 q 147 388 138 393 q 163 375 156 382 q 186 362 176 362 q 195 364 191 362 q 208 383 208 372 q 188 418 208 397 q 130 444 161 444 q 104 439 117 444 q 39 353 63 422 q 30 318 33 336 q 23 272 26 300 q 18 186 18 227 q 18 157 18 182 q 26 43 18 132 q 30 -1 28 20 q 32 -33 31 -23 q 38 -65 33 -54 q 54 -80 43 -75 z "},"g":{"ha":312,"x_min":18,"x_max":294,"o":"m 292 298 q 294 234 294 267 q 292 163 294 208 q 286 88 291 119 q 220 -44 269 -2 q 161 -68 192 -68 q 139 -65 150 -68 q 73 -25 105 -57 q 51 0 57 -9 q 45 18 45 9 q 53 36 45 29 q 66 41 58 41 q 71 41 68 41 q 79 36 73 40 q 90 25 85 31 q 130 -5 110 5 q 157 -13 145 -13 q 163 -12 161 -13 q 184 3 173 -9 q 203 32 195 16 q 216 77 213 56 q 220 140 220 97 q 221 161 221 151 q 221 183 221 171 q 220 195 220 195 q 215 192 219 195 q 204 184 210 189 q 130 156 166 156 q 87 166 109 156 q 42 214 62 180 q 18 287 22 249 l 18 296 q 21 326 18 309 q 32 359 24 342 q 52 386 39 372 q 79 406 65 399 q 106 414 90 411 q 125 416 117 416 q 134 415 130 416 q 163 407 146 413 q 189 395 180 401 q 195 390 193 392 q 198 389 198 389 q 199 394 199 389 q 199 406 199 399 q 200 421 199 416 q 205 432 201 427 q 239 450 219 450 q 255 449 242 450 q 280 425 269 448 q 287 380 283 416 q 292 298 290 345 m 197 305 l 202 317 l 191 328 q 169 344 178 338 q 146 354 159 350 q 125 358 135 358 q 101 348 111 358 q 85 306 85 334 l 85 300 q 87 282 85 290 q 96 263 90 275 q 128 231 110 231 q 142 236 135 231 q 173 264 156 243 q 197 305 189 286 z "},"h":{"ha":357,"x_min":17,"x_max":340,"o":"m 273 -71 q 281 -73 278 -73 l 284 -73 q 289 -73 286 -73 q 298 -71 291 -73 q 334 -44 321 -66 q 338 -35 337 -39 q 340 -23 340 -31 q 340 3 340 -14 q 339 38 340 18 q 337 73 338 58 q 243 288 325 254 q 208 293 230 293 q 170 288 186 293 q 92 224 128 272 q 83 213 86 216 q 79 210 80 210 l 79 210 q 77 212 78 210 q 75 240 77 216 q 73 296 74 264 q 73 354 73 328 l 73 392 q 74 416 74 408 q 73 427 74 424 q 67 433 71 429 q 52 439 60 439 q 41 436 47 439 q 25 408 31 432 q 19 322 20 385 q 17 138 17 260 l 17 -43 l 22 -51 q 55 -69 37 -69 q 83 -56 72 -69 q 94 -23 94 -43 q 101 19 95 -11 q 116 73 108 48 q 153 153 133 123 q 179 183 165 170 q 201 197 194 197 q 219 163 210 197 q 227 116 224 142 q 230 39 229 90 q 231 -6 231 9 q 233 -28 232 -21 q 236 -39 234 -35 q 273 -71 247 -64 z "},"i":{"ha":111,"x_min":20,"x_max":94,"o":"m 87 30 l 94 -28 l 88 -38 q 68 -56 81 -52 q 58 -58 63 -58 q 43 -53 50 -58 q 26 -32 30 -45 q 22 14 24 -24 q 20 100 20 52 l 20 183 q 23 266 21 239 q 32 302 26 293 q 49 312 37 311 l 52 312 q 58 311 56 312 q 65 306 61 311 l 72 299 l 72 262 q 87 30 72 170 m 35 375 q 20 400 23 383 q 20 409 20 405 q 26 430 20 420 q 41 442 31 437 q 58 446 50 446 l 62 446 q 91 408 91 440 q 70 376 91 386 q 51 370 60 370 q 35 375 43 370 z "},"j":{"ha":237,"x_min":17,"x_max":220,"o":"m 212 241 q 218 121 216 176 q 220 66 220 87 q 219 43 220 52 q 130 -83 210 -65 q 113 -85 121 -85 q 94 -83 106 -85 q 63 -72 81 -80 q 35 -55 45 -63 q 22 -39 27 -48 q 17 -21 17 -30 q 23 -3 17 -12 q 38 12 29 6 q 56 16 47 16 q 65 15 58 16 q 87 1 73 14 q 117 -11 104 -11 q 156 66 149 -11 q 158 117 157 79 q 160 200 159 155 q 161 259 160 237 q 162 292 161 281 q 163 307 163 302 q 166 314 164 312 q 186 326 174 326 q 197 324 189 326 q 207 304 205 322 q 209 282 208 300 q 212 241 210 264 m 169 386 q 156 394 162 387 q 147 408 149 401 q 146 414 146 412 q 157 436 146 427 q 177 446 166 446 q 193 441 184 446 q 203 420 203 435 q 203 412 203 417 q 191 392 201 399 q 173 386 184 386 l 169 386 z "},"k":{"ha":288,"x_min":18,"x_max":265,"o":"m 45 -52 q 58 -54 52 -54 q 72 -51 64 -54 q 88 -39 81 -49 q 94 -17 94 -31 l 94 -10 q 93 18 94 -1 q 90 63 92 37 q 87 105 88 90 l 85 117 l 106 97 q 147 64 123 81 q 192 33 171 46 q 221 18 212 20 q 229 17 225 17 q 258 32 248 17 q 265 52 265 41 q 260 71 265 61 q 254 78 258 75 q 241 88 250 82 q 215 104 232 94 q 154 145 174 129 q 125 174 133 161 q 121 187 121 181 q 121 192 121 189 q 129 208 121 196 q 223 315 165 267 q 245 343 245 333 q 238 359 245 352 q 220 366 231 366 q 186 348 210 366 q 135 304 162 330 q 90 254 109 279 l 78 238 l 75 286 q 72 335 73 307 q 70 384 71 362 l 68 433 l 62 439 q 48 444 55 444 q 33 437 41 444 q 26 430 28 434 q 23 415 24 425 q 19 326 20 393 q 18 180 18 260 l 18 130 q 19 32 18 81 q 22 -28 20 -18 q 45 -52 28 -45 z "},"l":{"ha":111,"x_min":17,"x_max":94,"o":"m 41 -56 q 56 -59 49 -59 q 72 -55 62 -59 q 89 -37 81 -52 l 94 -27 l 90 41 q 85 116 88 72 q 80 198 83 160 q 75 280 77 236 q 73 355 73 325 q 72 394 72 380 q 71 416 71 409 q 69 427 70 423 q 66 432 68 430 q 50 441 60 441 q 44 440 50 441 q 31 430 39 440 q 17 121 17 416 q 17 44 17 74 q 17 -1 17 15 q 19 -24 18 -17 q 20 -34 20 -31 q 28 -47 24 -42 q 41 -56 33 -52 z "},"m":{"ha":447,"x_min":21,"x_max":430,"o":"m 62 -13 q 67 -15 64 -14 q 75 -16 71 -16 q 84 -14 81 -16 q 91 -9 87 -13 q 96 2 95 -5 q 97 12 97 5 q 96 30 97 17 q 92 75 95 42 q 87 161 88 110 q 86 210 86 186 q 87 269 86 235 q 90 322 87 302 q 94 340 92 332 q 97 351 96 348 l 100 357 l 104 347 q 115 311 108 338 q 128 251 121 284 q 138 191 134 218 q 145 154 142 168 q 151 133 148 140 q 159 121 155 126 q 177 112 167 115 q 203 109 186 109 q 219 110 214 109 q 228 111 224 110 q 236 116 231 113 q 237 117 237 116 q 243 121 241 119 q 249 129 245 123 q 257 144 252 134 q 271 175 262 155 q 275 182 273 178 q 288 208 281 195 q 299 228 294 221 q 318 253 307 241 q 340 271 330 264 q 352 277 348 277 l 353 277 q 366 249 361 271 q 372 203 372 227 q 370 164 372 191 q 366 114 368 138 q 362 79 364 90 q 361 66 361 74 q 360 54 360 59 q 361 42 360 46 q 367 35 363 39 q 382 28 374 28 q 391 30 384 28 q 403 44 397 32 q 415 93 408 60 q 426 161 421 125 q 430 218 430 197 q 382 337 430 308 q 353 345 368 345 q 301 329 333 345 q 235 264 269 313 l 220 243 l 217 252 q 215 262 216 256 q 212 271 213 267 q 194 332 205 300 q 178 378 184 365 q 115 447 153 428 q 97 450 108 450 q 89 450 96 450 q 73 446 81 450 q 21 287 21 418 l 21 267 q 28 158 23 207 q 46 38 33 109 q 51 9 49 19 q 56 -5 54 -1 q 62 -13 58 -10 z "},"n":{"ha":433,"x_min":18,"x_max":416,"o":"m 339 -47 q 353 -48 347 -48 q 395 -31 376 -48 q 407 -11 404 -22 q 412 20 410 -1 q 415 90 414 48 q 416 170 416 132 q 414 226 416 208 q 359 400 403 343 q 267 444 323 443 q 92 296 168 439 l 79 270 l 78 279 q 75 305 77 284 q 69 353 73 326 q 64 399 66 380 q 61 422 62 418 q 47 435 58 431 q 41 435 44 435 q 27 431 34 435 q 20 421 22 428 q 18 401 18 414 l 18 363 q 26 197 20 287 q 37 75 32 107 q 42 57 38 65 q 53 44 47 49 q 73 39 60 39 q 94 45 86 39 q 106 62 102 50 q 115 103 111 74 q 158 241 126 182 q 199 303 175 274 q 242 342 224 332 q 261 349 254 348 q 264 349 263 349 q 275 346 271 349 q 305 259 296 330 q 307 214 307 243 q 307 166 307 200 q 301 79 306 132 q 296 17 296 35 q 299 -9 296 -1 q 339 -47 311 -39 z "},"o":{"ha":389,"x_min":17,"x_max":372,"o":"m 366 287 q 370 269 369 277 q 372 252 372 262 q 372 224 372 242 q 371 188 372 199 q 367 165 370 177 q 351 121 362 144 q 329 84 340 98 q 286 46 312 63 q 232 21 259 29 q 191 16 215 17 l 183 16 q 151 19 164 16 q 134 24 144 21 q 116 32 124 28 q 23 149 45 66 q 18 174 19 163 q 17 210 17 185 q 20 259 17 241 q 35 304 24 277 q 80 378 52 344 q 138 431 109 413 q 165 441 149 436 q 188 448 180 447 q 196 449 191 448 q 208 452 202 450 q 227 456 217 456 q 252 450 239 456 q 284 422 263 444 q 321 380 304 401 q 348 335 335 361 q 366 287 360 309 m 261 148 q 276 201 274 170 q 277 212 277 207 q 269 262 277 238 q 251 298 262 281 q 213 342 239 315 q 189 367 199 356 q 178 381 179 378 q 176 386 178 384 q 174 387 175 387 q 157 376 170 387 q 133 351 144 364 q 85 217 85 285 l 85 212 q 119 126 90 155 q 177 99 146 99 q 196 101 186 99 q 261 148 239 111 z "},"p":{"ha":252,"x_min":18,"x_max":234,"o":"m 229 358 q 234 305 234 336 l 234 298 q 230 256 234 273 q 204 200 221 227 q 165 157 186 173 q 133 140 152 149 q 102 130 115 132 q 96 129 98 130 q 93 125 94 127 q 91 118 92 123 q 90 100 90 113 q 90 73 90 87 q 87 17 90 41 q 81 -16 85 -8 q 68 -27 77 -24 q 62 -28 65 -28 q 52 -26 57 -28 q 43 -19 46 -24 q 40 -1 41 -14 q 38 37 39 12 q 32 170 36 91 q 24 290 27 249 q 18 371 20 334 q 18 401 18 389 q 18 420 18 414 q 65 469 24 458 q 100 473 79 473 q 117 472 103 473 q 146 467 130 472 q 229 358 207 440 m 145 298 q 146 313 146 305 q 144 339 146 323 q 135 369 142 355 q 100 395 121 395 l 93 395 l 92 374 q 91 339 91 362 q 92 291 91 316 q 93 248 92 266 q 95 231 94 231 q 98 231 96 231 q 104 233 101 232 q 130 258 119 240 q 145 298 141 276 z "},"q":{"ha":327,"x_min":17,"x_max":309,"o":"m 289 78 q 309 54 309 78 l 309 52 q 303 36 309 48 q 292 10 298 23 q 281 -10 286 -3 q 259 -37 272 -24 q 237 -54 247 -50 q 217 -58 227 -58 q 193 -52 205 -58 q 157 18 164 -39 q 154 51 155 27 q 151 100 153 75 q 150 140 150 125 l 150 154 l 140 147 q 96 132 117 132 q 77 135 86 132 q 55 154 67 140 q 37 180 43 167 q 17 281 17 224 q 36 374 17 338 q 126 427 64 422 q 140 428 136 427 q 146 430 144 429 q 147 433 147 431 q 150 447 148 442 q 157 458 152 452 q 189 473 172 473 q 210 469 195 473 q 232 435 225 464 l 232 428 q 221 191 232 392 q 218 104 219 146 l 218 65 q 218 26 218 47 q 220 2 218 5 l 220 2 q 229 8 223 2 q 242 24 234 14 q 256 47 250 35 q 273 72 267 66 q 289 78 279 78 m 145 256 q 149 269 148 262 q 150 284 150 275 q 150 309 150 293 q 149 335 149 324 q 146 347 148 346 q 141 349 146 348 q 129 349 136 349 q 115 348 120 349 q 106 345 111 347 q 84 267 84 330 l 84 262 q 85 235 84 245 q 88 218 86 225 q 101 192 95 196 q 104 191 102 191 q 117 200 109 191 q 145 256 134 218 z "},"r":{"ha":294,"x_min":18,"x_max":277,"o":"m 75 -22 q 83 -22 79 -22 q 120 1 106 -22 q 125 60 123 7 q 143 247 129 177 q 176 341 155 300 q 220 394 197 382 q 247 399 229 399 q 258 399 254 399 q 265 401 262 400 q 271 406 267 403 q 276 414 275 410 q 277 417 277 415 q 276 422 277 420 q 235 447 271 447 l 227 447 q 132 378 176 441 l 119 359 l 117 401 q 115 437 117 425 q 111 455 114 449 q 100 467 107 462 q 68 480 85 480 q 49 477 62 480 q 22 451 35 474 q 19 443 20 447 q 18 432 18 439 l 18 411 q 19 363 18 395 q 23 300 21 331 q 26 259 25 270 q 28 236 27 255 q 31 193 29 218 q 34 151 33 170 q 35 127 35 132 q 37 106 36 123 q 40 68 39 90 q 43 31 41 47 q 45 11 44 15 q 75 -22 50 -15 z "},"s":{"ha":296,"x_min":17,"x_max":259,"o":"m 113 -35 q 132 -37 123 -37 q 222 1 184 -37 q 259 89 259 37 q 248 149 259 117 q 219 207 239 178 q 159 280 199 237 q 98 364 102 340 q 96 374 96 370 q 96 377 96 375 q 100 386 96 380 q 115 402 107 397 q 137 408 123 407 q 152 411 147 409 q 159 416 156 412 q 165 431 165 423 q 163 439 165 433 q 151 451 161 445 q 128 456 140 456 q 102 451 119 456 q 66 427 85 446 q 47 399 52 412 q 43 372 43 389 l 43 367 q 44 344 43 351 q 50 328 45 336 q 102 248 66 291 q 165 161 147 195 q 182 100 182 130 l 182 98 q 181 84 182 89 q 180 76 181 79 q 175 68 178 73 q 138 49 161 49 l 134 49 q 83 65 111 51 q 58 71 70 71 q 33 63 47 71 q 17 28 18 55 q 49 -17 17 -1 q 79 -27 59 -22 q 113 -35 98 -33 z "},"t":{"ha":286,"x_min":18,"x_max":269,"o":"m 160 -41 q 174 -44 166 -44 q 186 -43 178 -44 q 206 -37 194 -42 q 267 77 255 -14 q 269 109 269 97 q 268 119 269 112 q 263 132 268 127 q 248 138 256 138 q 232 131 239 138 q 227 124 229 128 q 224 115 224 119 q 187 18 208 31 q 180 16 183 16 q 176 18 178 16 q 168 30 173 20 q 151 109 155 59 q 150 140 150 123 q 152 190 150 157 q 159 288 154 224 l 161 325 l 173 326 q 186 327 178 326 q 203 329 195 328 q 229 333 220 330 q 242 342 237 336 q 248 359 248 349 q 242 378 248 370 q 226 388 236 387 q 216 389 222 389 q 194 387 207 389 q 176 385 183 385 q 168 384 168 384 l 168 387 q 168 394 168 389 q 170 410 168 399 q 173 439 172 429 q 172 457 173 450 q 167 469 170 463 q 134 490 154 488 l 130 490 q 98 475 112 490 q 89 463 92 469 q 85 445 86 456 q 82 410 83 433 q 80 382 81 394 q 79 370 79 371 q 73 368 78 369 q 62 366 68 366 q 36 361 45 364 q 23 353 28 358 q 18 342 18 347 l 18 340 q 20 330 18 335 q 31 319 24 322 q 49 318 37 318 l 79 318 l 79 224 q 79 142 79 167 q 82 103 80 118 q 108 12 90 49 q 160 -41 127 -31 z "},"u":{"ha":310,"x_min":18,"x_max":293,"o":"m 260 28 q 270 25 264 25 q 277 26 272 25 q 287 33 282 27 l 293 39 l 291 92 q 289 137 290 114 q 288 174 288 161 q 286 225 287 188 q 284 308 285 263 q 280 422 283 407 q 255 448 274 441 q 245 449 250 450 q 233 447 241 449 q 202 426 212 441 q 189 376 193 412 q 171 271 179 317 q 160 210 163 224 q 139 145 151 171 q 119 119 127 119 q 113 123 117 119 q 103 132 108 127 q 96 142 98 138 q 75 216 84 167 q 66 308 66 265 q 63 337 66 328 q 54 351 60 347 q 42 354 47 354 q 26 347 34 354 q 19 321 21 342 q 18 277 18 306 l 18 257 q 44 107 20 151 q 121 53 73 58 l 127 53 q 138 54 133 53 q 152 59 142 54 q 218 146 191 77 q 224 164 222 157 q 227 172 227 172 q 228 174 227 174 q 229 175 229 175 q 230 174 230 175 q 231 172 231 174 q 232 166 231 170 q 233 156 233 162 q 235 140 234 150 q 238 118 237 131 q 242 87 240 104 q 248 52 245 64 q 252 35 250 40 q 260 28 255 31 z "},"v":{"ha":334,"x_min":18,"x_max":316,"o":"m 176 -26 q 192 -31 184 -31 q 209 -26 198 -31 q 227 -7 220 -22 q 243 53 231 3 q 269 164 256 103 q 291 271 282 225 q 299 316 294 290 q 308 362 304 342 q 315 406 313 391 q 316 421 316 415 q 315 429 316 425 q 310 437 315 434 q 296 443 303 443 q 281 436 288 443 q 273 424 277 433 q 263 393 269 414 q 247 331 257 371 q 225 248 235 284 q 203 172 216 212 q 197 150 199 157 q 193 142 195 142 q 193 141 193 141 l 192 144 q 146 308 171 232 q 134 350 141 327 q 123 389 127 373 q 115 420 118 410 q 107 436 111 431 q 98 446 104 441 q 66 458 83 458 q 44 453 60 458 q 20 422 29 448 q 18 406 18 414 q 18 401 18 404 q 33 352 21 389 q 60 274 45 315 q 85 204 73 239 q 111 119 96 170 q 141 29 127 68 q 161 -16 155 -9 q 168 -22 163 -19 q 176 -26 172 -24 z "},"w":{"ha":420,"x_min":17,"x_max":401,"o":"m 276 -12 q 302 -16 288 -16 q 314 -16 304 -16 q 338 -9 323 -16 q 363 8 351 -3 q 382 31 376 20 q 401 121 398 57 q 401 154 401 136 q 394 333 401 218 q 392 386 393 361 l 392 423 l 393 450 l 387 457 q 371 464 379 464 q 360 461 368 464 q 347 441 353 458 q 342 391 344 430 q 338 271 340 353 q 333 148 336 189 q 326 86 330 106 q 318 69 322 76 q 309 62 313 62 q 302 69 307 62 q 292 86 298 76 q 283 106 287 96 q 251 257 262 157 q 248 282 250 271 q 245 298 246 294 q 233 317 242 308 q 214 330 224 326 q 201 331 208 331 q 171 320 186 331 q 155 286 155 309 q 148 259 155 281 q 130 211 140 237 q 111 165 119 184 q 100 145 102 145 q 93 159 98 145 q 84 191 88 173 q 74 279 78 221 q 70 395 70 336 l 70 441 l 63 448 q 49 454 56 454 q 37 450 43 454 q 30 443 33 446 q 26 431 27 439 q 22 410 24 424 q 18 345 20 390 q 17 254 17 299 q 19 191 17 210 q 101 66 35 66 q 149 89 128 66 q 168 113 158 98 q 180 134 177 127 q 180 135 180 135 q 183 131 181 135 q 191 114 185 127 q 276 -12 226 14 z "},"x":{"ha":337,"x_min":18,"x_max":319,"o":"m 43 -54 q 54 -56 47 -56 q 61 -55 56 -56 q 74 -52 67 -55 q 101 -18 90 -44 q 114 9 103 -12 q 138 58 124 31 q 160 105 151 85 q 171 128 170 125 q 173 132 172 130 q 174 133 174 133 q 184 120 175 133 q 205 87 193 106 q 257 8 233 41 q 289 -29 280 -24 q 299 -32 294 -32 q 315 -23 307 -32 q 319 -12 319 -18 l 319 -10 q 314 7 319 -4 q 296 38 309 18 q 276 73 287 54 q 258 106 265 93 q 241 139 250 121 q 224 170 231 157 q 212 192 216 185 q 208 203 208 199 l 208 205 q 209 210 208 208 q 231 256 214 221 q 270 332 248 291 q 308 402 291 373 q 318 427 317 418 l 318 429 q 311 443 318 437 q 296 450 304 450 q 283 446 290 450 q 259 413 278 441 q 217 350 239 386 q 178 286 194 314 q 171 274 174 279 q 168 270 168 270 q 156 291 167 270 q 130 342 144 311 q 101 396 113 374 q 86 422 90 418 q 60 433 73 433 q 37 427 52 433 q 22 393 22 420 q 30 368 22 382 q 73 293 47 336 q 113 227 98 249 l 131 200 l 117 176 q 89 123 104 149 q 64 79 74 96 q 18 -14 20 6 l 18 -16 q 24 -39 18 -28 q 43 -54 31 -50 z "},"y":{"ha":307,"x_min":18,"x_max":290,"o":"m 191 -53 q 197 -55 193 -54 q 205 -56 201 -56 l 205 -56 q 242 -22 224 -56 q 262 33 254 1 q 278 117 271 65 q 286 180 283 155 q 289 237 289 204 q 290 336 290 269 q 290 418 290 389 q 288 461 290 448 q 283 481 286 475 q 273 491 279 486 q 254 501 264 500 q 245 502 250 502 q 220 499 235 502 q 205 491 213 498 q 193 477 197 485 q 187 456 191 474 q 178 414 182 438 q 142 266 157 311 q 125 223 134 244 q 109 193 115 201 l 104 188 l 100 197 q 77 275 89 220 q 72 307 73 291 q 70 349 71 323 l 68 395 l 62 402 q 47 408 56 408 q 39 407 45 408 q 26 395 33 406 q 19 347 20 382 q 18 322 18 334 q 20 280 18 301 q 90 123 36 135 q 106 121 98 121 q 177 172 143 121 q 197 209 185 185 q 215 251 208 233 q 219 261 217 257 q 222 265 221 265 q 223 247 223 265 q 223 202 224 228 q 222 153 223 176 q 210 41 217 78 q 191 -16 203 5 q 183 -37 183 -28 q 191 -53 183 -47 z "},"z":{"ha":284,"x_min":19,"x_max":260,"o":"m 92 -5 q 122 -9 102 -9 q 174 -5 143 -9 q 200 -1 191 -3 q 215 1 210 0 q 223 4 220 2 q 227 8 225 5 q 234 22 234 15 q 233 31 234 24 q 222 42 232 37 q 214 45 219 44 q 208 45 212 45 q 195 45 203 45 q 165 44 186 45 l 141 44 q 122 44 131 44 q 111 47 113 44 q 109 53 109 50 q 110 59 109 56 q 191 250 113 98 q 258 398 252 372 q 260 418 260 409 q 247 454 260 439 q 208 473 234 469 q 180 475 197 475 q 121 471 156 475 q 76 467 96 469 q 53 463 57 465 q 43 458 48 462 q 33 451 37 455 q 19 419 19 437 q 20 406 19 416 q 41 382 21 395 q 55 376 47 378 q 64 375 59 375 q 82 376 71 375 q 122 381 94 377 q 153 385 140 384 q 166 387 165 387 q 131 298 166 378 q 51 57 51 114 q 92 -5 52 9 z "},"{":{"ha":248,"x_min":17,"x_max":229,"o":"m 122 9 q 150 4 134 4 q 173 6 159 4 q 200 11 187 8 q 218 16 214 14 q 229 30 227 20 q 229 35 229 33 q 225 47 229 41 q 217 54 222 52 q 203 56 213 56 l 197 56 q 178 56 189 56 l 170 56 q 158 55 163 55 q 142 59 146 55 q 140 75 140 62 q 140 94 140 83 q 141 102 141 97 q 142 134 142 119 q 125 219 142 187 q 118 231 122 225 q 111 241 115 237 l 104 249 l 113 260 q 134 308 130 283 q 136 334 136 319 q 132 384 136 355 q 127 481 127 435 l 127 493 q 131 546 127 530 q 135 556 132 551 q 138 562 137 561 q 150 565 142 565 q 158 565 152 565 q 173 562 163 565 q 189 559 182 559 q 210 577 205 559 l 210 581 q 164 613 210 604 q 144 616 153 616 q 134 615 141 616 q 115 608 126 614 q 75 548 86 595 q 67 494 69 526 q 66 430 66 470 l 66 373 q 64 318 66 322 q 57 308 62 315 q 43 292 51 300 q 26 273 32 280 q 19 260 20 266 q 17 249 17 255 q 37 216 17 229 q 74 176 65 198 q 83 98 83 154 q 85 67 84 78 q 87 50 85 56 q 90 39 88 44 q 122 9 100 17 z "},"|":{"ha":116,"x_min":18,"x_max":99,"o":"m 46 14 q 59 12 53 12 q 80 18 68 12 q 97 41 92 24 q 99 53 98 45 q 98 76 99 60 q 96 122 98 92 q 84 300 90 212 q 74 449 79 388 q 70 512 72 480 q 67 562 68 545 q 61 608 66 598 q 42 618 57 618 q 28 612 34 618 q 24 606 25 609 q 21 597 22 603 q 20 580 20 591 q 18 487 18 566 q 18 307 18 408 l 18 212 q 18 110 18 168 q 19 44 18 52 q 29 27 21 36 q 46 14 37 18 z "},"}":{"ha":241,"x_min":30,"x_max":222,"o":"m 77 1 q 91 0 81 0 q 112 1 101 0 q 127 5 122 3 q 154 29 145 13 q 161 50 159 38 q 166 84 164 62 q 169 146 168 106 q 175 236 172 226 q 199 268 178 245 q 214 283 209 277 q 220 292 218 288 q 222 300 222 296 l 222 304 q 207 334 222 323 q 199 339 203 336 q 190 346 194 342 q 181 352 186 349 q 172 356 176 355 l 163 359 l 165 432 q 165 473 165 455 q 164 526 165 501 q 156 574 162 551 q 132 611 149 602 q 122 614 128 613 q 102 615 115 615 q 30 589 30 614 q 33 578 30 584 q 38 569 35 572 q 51 566 42 566 q 75 565 59 565 q 85 566 81 566 q 94 565 90 566 q 101 564 99 565 q 104 562 104 564 q 105 551 104 560 q 107 529 106 541 l 107 517 q 106 489 107 506 q 102 434 106 471 q 98 383 100 406 q 96 353 96 360 q 121 305 98 323 l 132 296 l 127 288 q 110 242 116 271 q 109 214 109 235 q 110 148 109 194 l 110 144 q 112 90 111 110 q 111 62 112 71 q 105 50 109 53 q 94 47 101 47 l 93 47 q 73 41 79 44 q 64 30 67 37 q 63 22 63 26 q 65 12 63 18 q 77 1 68 5 z "},"~":{"ha":422,"x_min":29,"x_max":401,"o":"m 268 249 q 286 247 279 247 q 304 249 292 247 q 372 289 338 254 q 387 306 380 298 q 396 319 394 315 q 401 337 401 328 q 395 356 401 345 q 370 371 389 368 l 366 371 q 334 353 349 371 q 298 317 309 323 q 291 314 296 315 q 280 313 286 313 q 270 315 275 313 q 257 320 265 316 q 234 330 248 323 q 185 351 205 346 q 147 356 168 356 l 138 356 q 96 348 115 356 q 54 317 77 340 q 29 277 29 294 q 35 263 29 269 q 41 257 38 258 q 50 256 44 256 q 57 257 54 256 q 64 261 60 258 q 76 271 68 264 q 133 302 109 302 q 215 271 170 302 q 268 249 243 253 z "},"":{"ha":127,"x_min":22,"x_max":98,"o":"m 83 360 q 85 290 84 328 q 88 223 87 251 q 93 140 91 174 q 95 86 94 106 q 96 56 96 66 q 95 41 96 45 q 93 33 94 36 q 71 15 85 20 q 60 13 66 13 q 43 18 52 13 q 36 23 39 20 q 30 32 32 27 l 24 42 l 26 157 q 30 311 26 241 q 36 410 33 381 q 44 438 39 430 q 62 446 50 446 q 77 439 71 446 q 79 436 78 438 q 81 430 80 434 q 82 418 81 426 q 82 396 82 410 q 83 360 83 382 m 40 527 q 35 532 38 529 q 29 538 31 535 q 22 562 22 550 q 30 589 22 572 q 61 605 38 605 q 78 601 72 605 q 90 585 84 597 q 98 560 98 571 q 81 533 98 544 q 60 524 71 526 l 54 524 q 40 527 46 524 z "},"":{"ha":325,"x_min":26,"x_max":308,"o":"m 292 267 q 308 233 308 254 q 288 200 308 212 q 265 194 282 197 q 228 187 248 190 q 198 184 209 184 q 188 184 193 184 q 183 182 184 183 q 181 169 183 181 q 178 140 180 157 q 170 80 173 100 q 162 51 166 60 q 151 37 157 42 q 128 30 141 31 l 123 30 q 106 34 113 30 q 86 70 86 47 q 87 79 86 75 q 91 100 88 84 q 97 134 94 116 q 103 168 100 153 q 106 188 106 183 l 109 197 l 94 204 q 31 273 46 230 q 26 307 26 290 q 39 363 26 334 q 52 382 45 374 q 72 405 58 391 q 146 455 107 440 l 160 460 l 165 481 q 171 507 168 490 q 178 539 175 523 q 191 587 186 570 q 201 609 196 603 q 214 615 207 614 q 219 616 217 616 q 223 615 221 616 q 229 612 225 614 q 238 598 237 606 q 239 593 239 596 q 235 569 239 585 q 229 532 233 553 q 223 495 226 511 q 221 474 221 478 q 223 470 221 471 q 231 467 225 469 q 255 461 244 465 q 271 452 267 457 q 277 438 277 446 q 271 423 277 430 q 258 416 267 418 l 254 416 q 229 418 245 416 q 226 419 227 419 q 220 420 223 420 q 216 419 218 420 q 213 413 214 418 q 210 395 212 408 q 210 387 210 391 q 205 357 208 378 q 199 314 203 336 q 194 277 196 292 q 193 262 193 266 l 193 261 l 193 261 q 204 263 196 261 q 227 267 213 264 q 270 274 256 274 q 292 267 283 273 m 137 341 q 144 375 142 361 q 146 389 146 387 l 146 391 l 146 391 q 138 386 144 391 q 124 373 132 382 q 109 357 115 365 q 96 334 99 344 q 92 311 92 324 q 93 299 92 304 q 97 290 94 294 q 105 282 100 286 q 114 275 110 277 q 120 273 118 273 l 121 273 q 123 276 121 273 q 125 283 124 279 q 130 304 126 288 q 137 341 133 321 z "},"":{"ha":446,"x_min":18,"x_max":429,"o":"m 103 9 q 111 8 106 8 q 117 7 115 7 q 123 8 121 8 q 127 9 126 9 q 136 13 129 9 q 153 24 143 18 q 188 43 174 38 q 211 47 199 47 l 217 47 q 240 41 224 45 q 276 30 257 36 q 308 20 297 23 q 326 16 319 16 q 336 15 330 15 l 345 15 q 424 90 411 15 q 429 132 428 109 l 429 140 q 426 174 429 159 q 404 200 422 200 q 385 191 390 200 q 380 158 380 182 q 373 104 380 129 q 358 75 366 79 q 347 73 353 73 q 339 74 345 73 q 325 78 333 75 q 276 98 302 88 q 237 112 250 109 q 220 114 231 113 q 201 115 210 115 q 188 116 193 115 q 183 117 184 116 q 182 118 182 117 l 182 119 q 190 149 186 127 q 195 191 193 171 q 197 223 196 203 q 197 261 197 243 l 197 304 l 216 302 q 246 300 233 300 q 299 321 291 300 q 303 336 303 330 q 293 357 303 347 q 278 365 286 363 q 270 366 275 366 q 256 364 264 366 q 235 363 247 363 q 217 363 227 363 l 194 366 l 193 397 l 193 408 q 229 545 193 505 q 237 552 234 550 q 245 554 241 554 q 263 543 254 554 q 277 517 273 532 q 298 494 284 494 q 311 497 304 494 q 322 521 322 503 q 321 528 322 524 q 291 585 319 557 q 275 600 281 595 q 261 606 269 604 q 241 608 251 608 q 170 562 202 608 q 150 527 159 547 q 136 488 141 507 q 127 439 132 468 q 123 393 123 410 q 120 375 123 378 q 106 372 117 372 q 78 367 96 372 q 48 356 60 361 q 29 341 37 351 q 18 323 20 332 q 18 319 18 321 q 20 307 18 313 q 30 298 23 301 q 39 296 35 296 q 46 297 41 296 q 59 305 50 298 q 106 318 73 318 l 121 318 l 121 288 q 82 96 121 179 q 73 68 75 80 l 73 65 q 77 42 73 54 q 103 9 87 15 z "},"":{"ha":405,"x_min":18,"x_max":387,"o":"m 347 193 q 366 180 359 185 q 374 171 372 175 q 377 159 376 166 q 378 153 378 155 q 377 147 378 150 q 371 140 376 144 q 363 135 367 136 q 353 134 360 134 q 340 136 347 134 q 323 146 334 138 q 290 171 311 155 l 271 186 l 257 179 q 224 168 241 171 q 193 166 212 166 l 184 166 q 157 168 166 167 q 138 174 147 170 q 124 178 130 176 q 116 181 118 180 q 108 174 114 181 q 88 150 102 168 q 56 114 66 121 q 44 111 50 111 q 31 114 38 111 q 20 127 23 118 q 18 136 18 132 q 19 143 18 138 q 27 157 20 147 q 48 184 34 167 l 75 214 l 67 226 q 47 294 47 258 q 74 382 47 336 l 84 398 l 75 407 q 60 426 70 413 q 41 451 50 439 q 29 468 32 463 q 26 481 26 473 q 27 487 26 482 q 33 498 28 492 q 50 507 40 507 q 62 504 56 507 q 70 498 66 503 q 82 482 74 494 q 104 448 90 471 q 111 438 108 442 q 115 434 114 434 q 119 436 115 434 q 127 441 123 438 q 150 454 136 449 q 176 460 163 459 q 186 463 180 461 q 195 467 192 465 q 223 477 210 477 q 236 476 227 477 q 272 454 245 474 l 288 442 l 317 473 q 355 506 343 500 q 363 508 359 508 q 378 501 371 508 q 384 494 382 498 q 386 484 386 490 q 387 480 387 482 q 379 462 387 472 q 348 431 372 452 l 323 410 l 332 393 q 351 317 351 353 q 319 229 351 270 l 309 217 l 317 212 q 329 203 321 209 q 347 193 338 198 m 262 288 q 267 311 267 298 q 265 329 267 316 q 252 355 263 342 q 239 365 249 358 q 219 380 230 372 q 183 411 186 401 q 180 412 182 412 q 174 410 179 412 q 161 401 170 408 q 146 387 153 395 q 114 328 123 358 q 110 299 110 313 q 114 275 110 286 q 126 260 117 268 q 144 246 135 252 q 180 238 162 238 q 220 247 199 238 q 244 265 232 253 q 262 288 256 277 z "},"":{"ha":398,"x_min":19,"x_max":381,"o":"m 175 27 q 182 25 179 25 q 191 27 186 25 q 206 54 203 31 q 210 91 208 61 q 215 154 212 121 q 218 200 218 186 l 219 213 l 254 215 q 292 219 281 216 q 307 231 302 222 q 311 247 311 239 q 309 258 311 250 q 294 273 306 266 q 288 275 291 274 q 281 276 286 276 q 266 275 276 276 q 239 273 256 275 l 221 271 l 222 294 q 223 308 222 303 q 224 314 223 313 q 227 316 225 316 q 268 318 252 317 q 292 319 283 319 q 303 321 300 320 q 310 323 307 322 q 326 351 326 334 q 308 379 326 369 q 298 382 303 381 q 292 382 296 382 q 283 382 288 382 l 266 380 l 269 385 q 279 404 270 389 q 300 439 288 419 l 311 458 q 346 519 332 495 q 367 557 359 543 q 377 578 374 571 q 381 589 380 585 q 380 597 381 593 l 380 599 q 351 631 374 625 q 339 633 345 633 q 309 620 323 633 q 289 584 306 616 q 250 508 273 553 q 211 432 227 463 q 193 397 195 401 l 189 392 l 174 414 q 155 444 168 423 q 129 486 142 464 q 53 601 64 592 q 41 604 47 604 q 26 597 33 604 q 19 584 19 592 q 21 574 19 581 q 39 536 22 566 q 61 495 47 521 q 87 444 75 469 q 111 400 100 420 q 125 375 121 380 q 130 366 127 370 q 131 363 131 363 l 131 362 q 124 361 130 362 q 110 359 118 359 q 74 353 86 355 q 57 350 62 351 q 50 347 52 349 q 40 337 43 344 q 38 328 38 332 q 39 323 38 326 q 41 318 39 321 q 46 312 43 315 l 52 306 l 105 308 l 157 309 l 157 265 l 151 264 q 141 263 149 264 q 124 262 133 262 q 94 259 104 260 q 79 256 83 258 q 72 251 75 254 q 65 236 65 243 q 68 225 65 233 q 86 214 71 218 q 103 213 91 213 q 128 212 115 212 l 160 212 l 160 127 q 160 86 160 102 q 160 60 160 70 q 161 46 161 51 q 162 39 161 41 q 165 35 163 37 q 170 30 167 33 q 175 27 172 28 z "},"":{"ha":97,"x_min":17,"x_max":80,"o":"m 62 264 q 70 259 67 262 q 75 244 73 255 q 76 209 76 233 q 77 142 77 184 q 77 85 77 107 q 77 53 77 64 q 76 37 77 41 q 74 29 75 32 q 56 15 68 19 q 46 13 51 13 q 33 16 39 13 q 27 21 31 18 q 22 27 24 24 q 18 34 20 30 q 17 47 17 39 q 18 74 17 56 q 22 123 20 92 q 25 178 24 151 q 28 218 27 205 q 33 252 30 243 q 46 264 37 261 q 54 267 51 267 q 62 264 57 267 m 38 337 q 32 341 35 338 q 26 349 29 345 l 21 356 l 22 423 q 32 547 25 538 q 49 560 38 558 q 54 561 52 561 q 68 554 61 561 l 74 548 l 75 497 q 77 448 76 475 q 79 400 78 420 l 80 353 l 72 345 q 64 338 68 340 q 54 335 60 336 q 45 335 50 335 q 38 337 41 336 z "},"":{"ha":280,"x_min":17,"x_max":247,"o":"m 201 180 l 207 172 q 246 87 246 128 q 239 52 246 69 q 182 8 224 19 q 152 5 171 5 l 143 5 q 122 7 130 5 q 26 80 68 20 q 19 93 20 88 q 17 109 17 98 q 18 124 17 119 q 22 134 19 129 q 56 150 35 150 l 59 150 q 80 142 71 149 q 100 119 89 136 q 113 105 106 112 q 123 94 119 98 q 146 82 133 85 q 156 81 151 81 q 170 83 163 81 q 175 87 174 85 l 175 89 q 174 94 175 91 q 163 118 174 102 q 127 165 153 134 q 87 215 99 197 q 69 250 75 233 q 59 306 59 279 q 60 324 59 315 q 69 361 62 341 q 82 394 75 382 l 87 404 l 79 414 q 59 438 68 425 q 45 464 50 452 q 41 480 42 471 q 40 505 40 488 q 40 525 40 518 q 43 537 41 532 q 49 551 45 542 q 66 575 56 566 q 94 593 77 585 q 107 599 102 597 q 119 602 113 601 q 136 602 125 602 q 154 602 148 602 q 164 599 159 601 q 176 594 169 597 q 206 573 190 587 q 235 543 222 558 q 247 511 247 526 q 237 486 247 497 q 223 475 230 478 q 205 471 216 471 q 186 476 194 471 q 168 492 178 480 q 148 516 155 509 q 134 524 140 523 l 133 524 q 122 521 128 524 q 115 513 117 518 q 113 502 113 509 l 113 496 q 167 424 113 470 q 220 372 205 393 q 241 328 236 352 q 244 298 244 316 q 244 281 244 294 q 239 251 243 268 q 227 220 235 237 q 210 192 219 204 l 201 180 m 182 245 q 187 262 186 254 q 188 284 188 270 l 188 290 q 184 317 188 307 q 169 339 180 328 q 154 352 163 345 q 137 366 145 359 q 127 372 128 372 q 121 362 124 372 q 116 339 118 352 q 113 316 113 326 q 151 231 113 272 l 167 214 l 172 222 q 177 232 174 226 q 182 245 180 239 z "},"":{"ha":202,"x_min":18,"x_max":185,"o":"m 174 589 q 185 564 184 578 q 175 539 185 550 q 157 532 167 532 q 142 536 151 532 q 128 562 128 545 l 128 567 q 147 595 130 587 q 158 598 153 598 q 174 589 167 598 m 48 596 q 76 567 70 596 l 76 562 q 63 538 76 547 q 48 534 56 534 q 32 538 40 534 q 20 553 24 543 q 18 567 18 560 l 18 570 q 29 588 20 581 q 48 596 38 596 z "},"":{"ha":233,"x_min":0,"x_max":0,"o":""},"":{"ha":203,"x_min":0,"x_max":0,"o":""},"":{"ha":408,"x_min":0,"x_max":0,"o":""},"":{"ha":439,"x_min":0,"x_max":0,"o":""},"":{"ha":221,"x_min":0,"x_max":0,"o":""},"":{"ha":380,"x_min":0,"x_max":0,"o":""},"":{"ha":250,"x_min":0,"x_max":0,"o":""},"":{"ha":391,"x_min":0,"x_max":0,"o":""},"":{"ha":187,"x_min":0,"x_max":0,"o":""},"":{"ha":192,"x_min":0,"x_max":0,"o":""},"":{"ha":170,"x_min":0,"x_max":0,"o":""},"":{"ha":392,"x_min":0,"x_max":0,"o":""},"":{"ha":387,"x_min":0,"x_max":0,"o":""},"":{"ha":123,"x_min":0,"x_max":0,"o":""},"":{"ha":338,"x_min":0,"x_max":0,"o":""},"":{"ha":172,"x_min":0,"x_max":0,"o":""},"":{"ha":338,"x_min":0,"x_max":0,"o":""},"":{"ha":408,"x_min":0,"x_max":0,"o":""},"":{"ha":640,"x_min":0,"x_max":0,"o":""},"":{"ha":629,"x_min":0,"x_max":0,"o":""},"":{"ha":639,"x_min":0,"x_max":0,"o":""},"":{"ha":298,"x_min":0,"x_max":0,"o":""},"":{"ha":416,"x_min":0,"x_max":0,"o":""},"":{"ha":416,"x_min":0,"x_max":0,"o":""},"":{"ha":416,"x_min":0,"x_max":0,"o":""},"":{"ha":415,"x_min":0,"x_max":0,"o":""},"":{"ha":415,"x_min":0,"x_max":0,"o":""},"":{"ha":416,"x_min":0,"x_max":0,"o":""},"":{"ha":754,"x_min":0,"x_max":0,"o":""},"":{"ha":404,"x_min":0,"x_max":0,"o":""},"":{"ha":455,"x_min":0,"x_max":0,"o":""},"":{"ha":456,"x_min":0,"x_max":0,"o":""},"":{"ha":456,"x_min":0,"x_max":0,"o":""},"":{"ha":456,"x_min":0,"x_max":0,"o":""},"":{"ha":121,"x_min":0,"x_max":0,"o":""},"":{"ha":122,"x_min":0,"x_max":0,"o":""},"":{"ha":248,"x_min":0,"x_max":0,"o":""},"":{"ha":203,"x_min":0,"x_max":0,"o":""},"":{"ha":439,"x_min":0,"x_max":0,"o":""},"":{"ha":435,"x_min":0,"x_max":0,"o":""},"":{"ha":467,"x_min":0,"x_max":0,"o":""},"":{"ha":467,"x_min":0,"x_max":0,"o":""},"":{"ha":467,"x_min":0,"x_max":0,"o":""},"":{"ha":467,"x_min":0,"x_max":0,"o":""},"":{"ha":467,"x_min":0,"x_max":0,"o":""},"":{"ha":243,"x_min":0,"x_max":0,"o":""},"":{"ha":597,"x_min":0,"x_max":0,"o":""},"":{"ha":362,"x_min":0,"x_max":0,"o":""},"":{"ha":362,"x_min":0,"x_max":0,"o":""},"":{"ha":363,"x_min":0,"x_max":0,"o":""},"":{"ha":363,"x_min":0,"x_max":0,"o":""},"":{"ha":358,"x_min":0,"x_max":0,"o":""},"":{"ha":339,"x_min":0,"x_max":0,"o":""},"":{"ha":424,"x_min":0,"x_max":0,"o":""},"":{"ha":361,"x_min":0,"x_max":0,"o":""},"":{"ha":361,"x_min":0,"x_max":0,"o":""},"":{"ha":363,"x_min":0,"x_max":0,"o":""},"":{"ha":362,"x_min":0,"x_max":0,"o":""},"":{"ha":361,"x_min":0,"x_max":0,"o":""},"":{"ha":361,"x_min":0,"x_max":0,"o":""},"":{"ha":564,"x_min":0,"x_max":0,"o":""},"":{"ha":353,"x_min":0,"x_max":0,"o":""},"":{"ha":299,"x_min":0,"x_max":0,"o":""},"":{"ha":299,"x_min":0,"x_max":0,"o":""},"":{"ha":299,"x_min":0,"x_max":0,"o":""},"":{"ha":298,"x_min":0,"x_max":0,"o":""},"":{"ha":121,"x_min":0,"x_max":0,"o":""},"":{"ha":122,"x_min":0,"x_max":0,"o":""},"":{"ha":248,"x_min":0,"x_max":0,"o":""},"":{"ha":203,"x_min":0,"x_max":0,"o":""},"":{"ha":346,"x_min":0,"x_max":0,"o":""},"":{"ha":433,"x_min":0,"x_max":0,"o":""},"":{"ha":389,"x_min":0,"x_max":0,"o":""},"":{"ha":390,"x_min":0,"x_max":0,"o":""},"":{"ha":389,"x_min":0,"x_max":0,"o":""},"":{"ha":390,"x_min":0,"x_max":0,"o":""},"":{"ha":389,"x_min":0,"x_max":0,"o":""},"":{"ha":425,"x_min":0,"x_max":0,"o":""},"":{"ha":597,"x_min":0,"x_max":0,"o":""},"":{"ha":310,"x_min":0,"x_max":0,"o":""},"":{"ha":310,"x_min":0,"x_max":0,"o":""},"":{"ha":310,"x_min":0,"x_max":0,"o":""},"":{"ha":312,"x_min":0,"x_max":0,"o":""},"":{"ha":310,"x_min":0,"x_max":0,"o":""},"":{"ha":307,"x_min":0,"x_max":0,"o":""},"":{"ha":307,"x_min":0,"x_max":0,"o":""},"":{"ha":307,"x_min":0,"x_max":0,"o":""},"":{"ha":102,"x_min":0,"x_max":0,"o":""},"":{"ha":121,"x_min":0,"x_max":0,"o":""},"":{"ha":122,"x_min":0,"x_max":0,"o":""},"":{"ha":248,"x_min":0,"x_max":0,"o":""},"":{"ha":311,"x_min":0,"x_max":0,"o":""},"":{"ha":313,"x_min":0,"x_max":0,"o":""},"":{"ha":197,"x_min":0,"x_max":0,"o":""},"":{"ha":180,"x_min":0,"x_max":0,"o":""},"":{"ha":248,"x_min":0,"x_max":0,"o":""},"":{"ha":338,"x_min":0,"x_max":0,"o":""},"":{"ha":262,"x_min":0,"x_max":0,"o":""},"":{"ha":379,"x_min":0,"x_max":0,"o":""},"":{"ha":122,"x_min":0,"x_max":0,"o":""},"":{"ha":120,"x_min":0,"x_max":0,"o":""},"":{"ha":120,"x_min":0,"x_max":0,"o":""},"":{"ha":247,"x_min":0,"x_max":0,"o":""},"":{"ha":247,"x_min":0,"x_max":0,"o":""},"":{"ha":247,"x_min":0,"x_max":0,"o":""},"":{"ha":317,"x_min":0,"x_max":0,"o":""},"":{"ha":302,"x_min":0,"x_max":0,"o":""},"":{"ha":168,"x_min":0,"x_max":0,"o":""},"":{"ha":414,"x_min":0,"x_max":0,"o":""},"":{"ha":256,"x_min":0,"x_max":0,"o":""},"":{"ha":245,"x_min":0,"x_max":0,"o":""},"":{"ha":597,"x_min":0,"x_max":0,"o":""},"":{"ha":385,"x_min":0,"x_max":0,"o":""},"":{"ha":418,"x_min":0,"x_max":0,"o":""},"":{"ha":625,"x_min":0,"x_max":0,"o":""},"":{"ha":422,"x_min":0,"x_max":0,"o":""},"":{"ha":711,"x_min":0,"x_max":0,"o":""},"":{"ha":534,"x_min":0,"x_max":0,"o":""},"":{"ha":378,"x_min":0,"x_max":0,"o":""},"":{"ha":448,"x_min":0,"x_max":0,"o":""},"":{"ha":448,"x_min":0,"x_max":0,"o":""},"":{"ha":422,"x_min":0,"x_max":0,"o":""},"":{"ha":283,"x_min":0,"x_max":0,"o":""},"":{"ha":389,"x_min":0,"x_max":0,"o":""},"":{"ha":399,"x_min":0,"x_max":0,"o":""},"":{"ha":240,"x_min":0,"x_max":0,"o":""},"":{"ha":342,"x_min":0,"x_max":0,"o":""},"":{"ha":410,"x_min":0,"x_max":0,"o":""},"":{"ha":404,"x_min":0,"x_max":0,"o":""},"":{"ha":357,"x_min":0,"x_max":0,"o":""},"":{"ha":328,"x_min":0,"x_max":0,"o":""}}}
